<svg xmlns="http://www.w3.org/2000/svg" viewBox="0 0 152.3 67"><defs><style>.cls-1{fill:#005bea;}.cls-2{fill:#fff;}</style></defs><title>blueLogo</title><g id="Layer_2" data-name="Layer 2"><g id="Layer_1-2" data-name="Layer 1"><path class="cls-1" d="M68,67H63.87a11.45,11.45,0,0,1-2.23-.45,13.87,13.87,0,0,1-4-2.39,12.87,12.87,0,0,1-3.48-4.89.62.62,0,0,0-.68-.41A16.34,16.34,0,0,1,48,58a17.79,17.79,0,0,1-5.42-2.88A18.23,18.23,0,0,1,39.37,52c-.31-.41-.39-.42-.81-.15a22.77,22.77,0,0,1-7.9,3.28,22.5,22.5,0,0,1-6.18.39,21.68,21.68,0,0,1-7.81-2,22.66,22.66,0,0,1-5.49-3.58A22.5,22.5,0,0,1,3.54,34.05a18.5,18.5,0,0,1,0-2.47,1.36,1.36,0,0,0-.46-1.14,10.73,10.73,0,0,1-3-5.76A17.94,17.94,0,0,1,0,21.57,9.68,9.68,0,0,1,1,17.68,10.25,10.25,0,0,1,2.6,15.12a11.44,11.44,0,0,1,9.66-4.07,11.1,11.1,0,0,1,4.1,1.09.92.92,0,0,0,.87,0,21.19,21.19,0,0,1,6.86-1.73,23.15,23.15,0,0,1,4.71.07c.43,0,.51,0,.52-.43A10.06,10.06,0,0,1,31.88,3.5,9.83,9.83,0,0,1,37.69.13,15.37,15.37,0,0,1,40.8,0a8.39,8.39,0,0,1,3.13.74,10.43,10.43,0,0,1,6.24,8.76c0,.34.07.37.4.21a22.09,22.09,0,0,1,2.41-1,16.08,16.08,0,0,1,15.23,2.74c.33.26.62.56,1,.82s.39.17.56-.07a18.32,18.32,0,0,1,2.15-2.42,19,19,0,0,1,6.65-4.19,19.52,19.52,0,0,1,13.6.06,19.5,19.5,0,0,1,6,3.65,19.82,19.82,0,0,1,3.58,4.28c.3.48.3.49.83.21a9.14,9.14,0,0,1,9.67.85c.64.48.48.56,1.26,0a22.11,22.11,0,0,1,12.38-3.5,22.25,22.25,0,0,1,8.53,1.93,23.27,23.27,0,0,1,3.06,1.68.5.5,0,0,0,.71-.07A8.14,8.14,0,0,1,143,12.55a8.23,8.23,0,0,1,6.4,2,7.57,7.57,0,0,1,2.83,5.09,9.23,9.23,0,0,1-.48,4.68,8.43,8.43,0,0,1-3.94,4.28c-.78.41-.8.4-.68,1.27a23.25,23.25,0,0,1,.23,4.33,22.14,22.14,0,0,1-1.75,7.72,21.4,21.4,0,0,1-3.78,6,22,22,0,0,1-14.08,7.29,21.65,21.65,0,0,1-7.44-.46,21,21,0,0,1-6.84-2.9.55.55,0,0,0-.75.06,16.52,16.52,0,0,1-3.91,2.49,16.77,16.77,0,0,1-5.29,1.49c-.58.07-1.16.07-1.74.13a10.54,10.54,0,0,1-1.86-.09c-.67,0-.67-.07-.84.55a11.07,11.07,0,0,1-2.09,4A11.54,11.54,0,0,1,81.86,63a11.63,11.63,0,0,1-3.67-3.65c-.06-.1-.09-.24-.23-.29-.17.12-.19.32-.26.49a13.24,13.24,0,0,1-2.62,3.9,12.92,12.92,0,0,1-5.45,3.3C69.09,66.92,68.52,66.87,68,67Z"/><path class="cls-1" d="M104.19,32.61a13.06,13.06,0,0,1-1,5.3,5.55,5.55,0,0,1-3.85,3.4,5.71,5.71,0,0,1-6.87-3.45,13.23,13.23,0,0,1-1-6.19,11.33,11.33,0,0,1,.88-4.06A5.57,5.57,0,0,1,96.69,24,5.74,5.74,0,0,1,102.87,27,11.52,11.52,0,0,1,104.19,32.61Z"/><path class="cls-1" d="M119.27,29.64c.57-2.36,1.55-4.4,3.76-5.52A6.84,6.84,0,0,1,133.15,29c.12.61.11.61-.51.61H119.27Z"/><path class="cls-2" d="M43.18,23.46h2.59V41.92H43.18Zm1.29,16H55v2.47H44.47Z"/><path class="cls-2" d="M60.28,41.26A5.78,5.78,0,0,1,58,38.87a7.55,7.55,0,0,1-.81-3.57V30.07A7.55,7.55,0,0,1,58,26.5a5.78,5.78,0,0,1,2.28-2.39,7.3,7.3,0,0,1,6.8,0,5.78,5.78,0,0,1,2.28,2.39,7.55,7.55,0,0,1,.81,3.57V35.3a7.55,7.55,0,0,1-.81,3.57,5.78,5.78,0,0,1-2.28,2.39,7.23,7.23,0,0,1-6.8,0ZM65.69,39A3.47,3.47,0,0,0,67,37.58a4.9,4.9,0,0,0,.47-2.19V30A4.9,4.9,0,0,0,67,27.79a3.47,3.47,0,0,0-1.35-1.46,4.22,4.22,0,0,0-4,0,3.47,3.47,0,0,0-1.35,1.46A4.77,4.77,0,0,0,59.85,30v5.41a4.77,4.77,0,0,0,.47,2.19A3.47,3.47,0,0,0,61.67,39a4.22,4.22,0,0,0,4,0Z"/><path class="cls-2" d="M86.47,32V35.2a7.88,7.88,0,0,1-.8,3.62,5.8,5.8,0,0,1-2.27,2.43,6.62,6.62,0,0,1-3.39.86,7.05,7.05,0,0,1-3.44-.81A5.71,5.71,0,0,1,74.28,39a7,7,0,0,1-.81-3.41V30.16a7.75,7.75,0,0,1,.8-3.62,5.81,5.81,0,0,1,2.26-2.42,6.63,6.63,0,0,1,3.4-.85,6.44,6.44,0,0,1,2.93.67,6.29,6.29,0,0,1,2.24,1.93,7.31,7.31,0,0,1,1.22,2.88H83.51a3.94,3.94,0,0,0-.77-1.59,3.69,3.69,0,0,0-1.29-1,3.56,3.56,0,0,0-1.52-.35,3.65,3.65,0,0,0-2,.55,3.56,3.56,0,0,0-1.33,1.53,5.29,5.29,0,0,0-.47,2.29v5.45a4.32,4.32,0,0,0,.48,2.08A3.4,3.4,0,0,0,78,39.08a4.11,4.11,0,0,0,2,.5,3.75,3.75,0,0,0,2-.52,3.28,3.28,0,0,0,1.33-1.49,5.19,5.19,0,0,0,.47-2.32v-.8H80.07V32Z"/><path class="cls-2" d="M92.85,41.26a5.69,5.69,0,0,1-2.27-2.39,7.55,7.55,0,0,1-.81-3.57V30.07a7.55,7.55,0,0,1,.81-3.57,5.69,5.69,0,0,1,2.27-2.39,7.32,7.32,0,0,1,6.81,0,5.78,5.78,0,0,1,2.28,2.39,7.67,7.67,0,0,1,.8,3.57V35.3a7.67,7.67,0,0,1-.8,3.57,5.78,5.78,0,0,1-2.28,2.39,7.25,7.25,0,0,1-6.81,0ZM98.27,39a3.39,3.39,0,0,0,1.34-1.46,4.77,4.77,0,0,0,.48-2.19V30a4.77,4.77,0,0,0-.48-2.19,3.39,3.39,0,0,0-1.34-1.46,4.24,4.24,0,0,0-4,0,3.45,3.45,0,0,0-1.34,1.46A4.77,4.77,0,0,0,92.42,30v5.41a4.77,4.77,0,0,0,.48,2.19A3.45,3.45,0,0,0,94.24,39a4.24,4.24,0,0,0,4,0Z"/></g></g></svg>