<svg xmlns="http://www.w3.org/2000/svg" xmlns:xlink="http://www.w3.org/1999/xlink" viewBox="0 0 574.72 456.79"><defs><style>.cls-1{fill:#f2f0ee;}.cls-2{fill:#0042c5;}.cls-3{fill:#002087;}.cls-4{fill:#ffbc3c;}.cls-5{fill:#ffaa28;}.cls-6{fill:#6074ff;}.cls-10,.cls-7{fill:#002ca6;}.cls-18,.cls-21,.cls-8{fill:none;}.cls-8{stroke:#ff9c00;}.cls-10,.cls-21,.cls-8{stroke-miterlimit:10;}.cls-9{fill:#002ba5;}.cls-10,.cls-18{stroke:#002ca6;}.cls-10{stroke-width:0.25px;}.cls-11{fill:#fff;}.cls-12{fill:#ddd;}.cls-13{fill:#ffa81d;}.cls-14{fill:#ff9c00;}.cls-15{fill:#516cf5;}.cls-16{fill:#6175ff;}.cls-17{fill:#8fa1ff;}.cls-18{stroke-linecap:round;stroke-linejoin:round;stroke-width:6px;}.cls-19{fill:url(#Degradado_sin_nombre_14);}.cls-20{fill:#053dbc;}.cls-21{stroke:#053dbc;stroke-width:2px;}.cls-22{fill:#91a8f6;}</style><linearGradient id="Degradado_sin_nombre_14" x1="277.07" y1="314.78" x2="277.07" y2="137.4" gradientUnits="userSpaceOnUse"><stop offset="0" stop-color="#fff" stop-opacity="0"/><stop offset="1" stop-color="#ffbc3c" stop-opacity="0.3"/></linearGradient></defs><title>createImg</title><g id="Layer_2" data-name="Layer 2"><g id="Layer_1-2" data-name="Layer 1"><path class="cls-1" d="M475.44,161.15c-139.28,1.71-162.76-51.26-249.68-56.29C75,96.15-29.88,224.89,7.65,367.32s186.79,72.11,186.79,72.11C302.16,396.33,311.31,421,458.62,375.5S614.72,159.45,475.44,161.15Z"/><path class="cls-2" d="M25.5,293.14H71.07a2,2,0,0,1,0,4H25.5a2,2,0,1,1,0-4Z"/><path class="cls-2" d="M85.57,293.13h8.91a2,2,0,0,1,0,4H85.57a2,2,0,0,1,0-4Z"/><path class="cls-2" d="M48.91,307h5.7a2,2,0,0,1,0,4h-5.7a2,2,0,1,1,0-4Zm15.66,0h10a2,2,0,0,1,0,4h-10a2,2,0,0,1,0-4Zm19.94,0h10a2,2,0,1,1,0,4h-10a2,2,0,1,1,0-4Z"/><path class="cls-1" d="M389.83,76.25S295,63.55,306.1,101.94s166.49,68.38,167.1,31.65S389.83,76.25,389.83,76.25Z"/><path class="cls-2" d="M368.06,382.93h4.79l4.62-2.73c-2-15.55,8.62-29.9,20.31-40.35s25.4-19.4,33.14-33c3.22-5.68,4.45-14.41-1.33-17.45a10.91,10.91,0,0,0-6.71-.74c-14,2.09-13.56,11.14-27.7,11-4.89-.06-10.55-3.06-10.55-8a11.49,11.49,0,0,1,1.69-5.21c11.3-21.34,20.2-31.48,36.53-49.27,9.21-10,17.82-23.1,14.65-36.34a7.19,7.19,0,0,0-1.95-3.82c-2.27-2-5.84-1-8.5.47-12.92,7.05-8.85,7.16-19.33,17.5-2.69,2.65-6.76,5.2-10,3.21-2-1.26-2.75-3.88-2.92-6.27-1.13-15.47,23.9-40.38,2.49-41.24-5.61-.23-9,9.12-14.31,7.29-4.48-1.55-2.87-8.22-.56-12.35,3.39-6.05,6.39-13.93,2.24-19.48-3.65-4.87-11.37-5-16.52-1.74s-8.25,8.89-10.72,14.46a103.16,103.16,0,0,0-8.3,28.19c-1.6,11.95-1.29,25.67-10.15,33.84-5.29,4.88-12.83,6.56-20,6.69-3.69.07-7.78-.08-10.54,2.36-2,1.79-2.82,4.59-3.15,7.27a30.74,30.74,0,0,0,10.82,27.08c5.4,4.42,12.28,6.92,17.2,11.87s6.9,14.18,1.38,18.45c-4,3.07-9.59,2-14.62,2-9.24,0-18.55,4.55-23.61,12.29s-5.32,18.57,0,26.13c9.55,13.51,29.79,11.66,45.21,17.66A44.13,44.13,0,0,1,368.06,382.93Z"/><path class="cls-3" d="M373.87,382.93c-29.19-112.22.86-233,1.17-234.23a1.23,1.23,0,1,0-2.39-.61c-.31,1.21-30.4,122.17-1.32,234.84Z"/><path class="cls-3" d="M362.31,256.57a1.21,1.21,0,0,0,.83-1.1c1.64-32.57,33.21-75,33.52-75.43a1.23,1.23,0,1,0-2-1.48c-1.32,1.76-32.34,43.46-34,76.78a1.23,1.23,0,0,0,1.17,1.29A1.19,1.19,0,0,0,362.31,256.57Z"/><path class="cls-3" d="M360.23,285.51l.14-.05a1.23,1.23,0,0,0,.67-1.61c-11.5-27.89-46-44.75-47.45-45.46A1.24,1.24,0,0,0,312,239a1.22,1.22,0,0,0,.57,1.64c.35.17,35.1,17.17,46.24,44.18A1.24,1.24,0,0,0,360.23,285.51Z"/><path class="cls-3" d="M360.66,297.43a1.23,1.23,0,0,0,.81-.91c5.75-26.31,66.16-83.59,66.77-84.17a1.23,1.23,0,0,0-1.7-1.79C424,212.93,365,269,359.07,296a1.22,1.22,0,0,0,.94,1.46A1.19,1.19,0,0,0,360.66,297.43Z"/><path class="cls-3" d="M366.07,351.15l.05,0a1.22,1.22,0,0,0,.7-1.59c-12-30.69-62.13-28.78-64.26-28.68a1.23,1.23,0,0,0,.12,2.46c.5,0,50.51-1.93,61.85,27.11A1.23,1.23,0,0,0,366.07,351.15Z"/><path class="cls-3" d="M368.15,362.74a1.23,1.23,0,0,0,.83-1.11c1.29-29.13,52.74-59.82,53.26-60.13a1.23,1.23,0,0,0-1.25-2.12c-2.17,1.28-53.12,31.68-54.47,62.14a1.23,1.23,0,0,0,1.18,1.28A1.14,1.14,0,0,0,368.15,362.74Z"/><path class="cls-4" d="M138.85,174.32s.41.57,1.11,1.69,1.67,2.8,2.86,5,2.5,4.85,3.9,8,2.79,6.72,4.25,10.66,2.79,8.3,4,12.94,2.34,9.6,3.26,14.76,1.64,10.52,2.27,16,.92,11,1,16.63c.07,2.79.14,5.58.07,8.36,0,1.39,0,2.78,0,4.16l-.18,4.13c-.06,1.38-.12,2.74-.18,4.1s-.21,2.71-.31,4.06c-.19,2.69-.37,5.34-.69,7.94s-.49,5.18-.88,7.67-.7,4.94-1,7.32c-.81,4.74-1.43,9.25-2.32,13.35q-.6,3.11-1.15,5.92c-.41,1.87-.8,3.65-1.17,5.31-.72,3.34-1.37,6.25-2,8.62s-1.09,4.25-1.41,5.52a13,13,0,0,0-.35,1.46c.07.2.51.47.84.65l.68.34.76.09a2.2,2.2,0,0,0,1.05-.09c.15-.32.26-.82.46-1.45.39-1.27,1-3.14,1.67-5.51s1.54-5.28,2.42-8.63c.44-1.67.92-3.45,1.41-5.33l1.35-6c1-4.15,1.72-8.72,2.65-13.52.75-4.83,1.47-9.94,2-15.26.32-2.65.5-5.35.69-8.1.08-1.37.17-2.75.26-4.13l.12-4.19c0-1.4.07-2.81.11-4.22s0-2.83,0-4.25c0-2.84-.09-5.69-.22-8.53-.24-5.7-.8-11.37-1.47-16.94s-1.69-11-2.88-16.21-2.56-10.19-4-14.85-3.14-9-4.78-12.92a121,121,0,0,0-9.53-18.2A56.65,56.65,0,0,0,138.85,174.32Z"/><path class="cls-4" d="M152.23,202.77s2.91-3.64-1.21-16-3.2-30,3.85-26.69S159,194.89,152.23,202.77Z"/><path class="cls-4" d="M160,229.4a120.16,120.16,0,0,0,4.83-23.08c1.64-14.39,1.5-21.57,7.42-16.1S167.82,223.49,160,229.4Z"/><path class="cls-4" d="M146.47,188.07s-10.89-28-24.77-25.87S143.57,181.6,146.47,188.07Z"/><path class="cls-4" d="M156.12,209.24s-22.33-33.09-33.67-25.41S154.78,204,156.12,209.24Z"/><path class="cls-4" d="M162.18,227.33s-25.09-27.09-32.31-17.42C121.82,220.66,159.41,220.1,162.18,227.33Z"/><path class="cls-4" d="M163.9,258.24s10-36.47,15.1-41.16S186,230,163.9,258.24Z"/><path class="cls-4" d="M162.39,241.48s-20.82-21.59-26.64-21S134.29,237.5,162.39,241.48Z"/><path class="cls-4" d="M163.15,301.85s-16.7-26.68-22.33-27.47S136.94,291.33,163.15,301.85Z"/><path class="cls-4" d="M157,327.41s-6.48-28-12.12-28.26S133.57,318.62,157,327.41Z"/><path class="cls-4" d="M155.84,335.05s22-40.91,29.38-43.76S190.37,312.65,155.84,335.05Z"/><path class="cls-4" d="M162.73,292.86s14.08-40.94,21.5-43.85S195.05,270.23,162.73,292.86Z"/><path class="cls-4" d="M162.64,274.21s-10.87-29.61-22.14-23C130.42,257.06,162.64,274.21,162.64,274.21Z"/><path class="cls-5" d="M364.08,371a25.79,25.79,0,0,1-2.51-30.38c5.53-8.59,16.62-14.78,16.49-25,0-3.3-1.35-6.45-1.72-9.73-1-8.9,4.94-17.07,11.49-23.17S402,271.34,406.36,263.5c7.13-12.91,3.32-28.78,3.41-43.53.05-7.85,3.37-17.74,11.21-18,6.58-.25,11.06,6.92,11.92,13.45s-.38,13.37,1.7,19.62c3.32,10,14,15.55,19.38,24.56a27.1,27.1,0,0,1-3.75,31.95c-4.82,4.93-11.33,7.75-16.87,11.85S423,313.84,424,320.64c1.21,7.68,9.43,12.72,10.93,20.35,1.1,5.6-1.72,11.25-5.29,15.7-10.15,12.66-47.81,33.59-65.6,14.32"/><path class="cls-4" d="M422.27,220.58l-.09.49a13.61,13.61,0,0,0-.24,1.44,30,30,0,0,0-.23,5.55,72.38,72.38,0,0,0,1,8.58c.55,3.29,1.29,7,1.9,11a68,68,0,0,1,.89,13.14A39.7,39.7,0,0,1,422.35,275c-1.91,4.73-5.63,8.58-9.77,11.93s-8.77,6.44-12.41,10.76a20.35,20.35,0,0,0-4,7.42,22.43,22.43,0,0,0-.71,8.37,42.11,42.11,0,0,0,1.68,8,26,26,0,0,1,1,7.41,26.34,26.34,0,0,1-4.21,13.38,120.32,120.32,0,0,1-7.69,10.6,46.1,46.1,0,0,0-6.11,9.76,19,19,0,0,0-1.56,9.11,19.85,19.85,0,0,0,1.4,5.81c.26.64.47,1.12.63,1.43l.22.49,2.8-1.42-.21-.42c-.14-.28-.34-.69-.57-1.24a16.87,16.87,0,0,1-1.29-4.92,16.06,16.06,0,0,1,1.2-7.76,44.09,44.09,0,0,1,5.59-9.26,120.9,120.9,0,0,0,7.65-11,28.54,28.54,0,0,0,4.27-14.58,27.56,27.56,0,0,0-1.28-8,41,41,0,0,1-1.77-7.61,20.8,20.8,0,0,1,.49-7.74,18.81,18.81,0,0,1,3.6-6.94c3.35-4.16,7.9-7.3,12-10.82a46.76,46.76,0,0,0,5.74-5.69,25.61,25.61,0,0,0,4.05-6.79,40.43,40.43,0,0,0,3-14.52A69.7,69.7,0,0,0,425,247.61c-.68-4.06-1.47-7.73-2.06-11a73,73,0,0,1-1.14-8.54,30.51,30.51,0,0,1,.14-5.54c.06-.64.18-1.12.23-1.45Z"/><path class="cls-4" d="M409.18,200.66s-.41.57-1.11,1.69-1.67,2.8-2.86,5-2.49,4.84-3.9,8-2.79,6.72-4.25,10.66-2.78,8.3-4,12.95-2.33,9.59-3.26,14.75-1.64,10.52-2.27,16-.92,11-1,16.63c-.07,2.79-.14,5.58-.07,8.36,0,1.39,0,2.78,0,4.16l.18,4.14c.06,1.37.13,2.74.19,4.1s.2,2.71.31,4.05c.18,2.69.37,5.34.68,7.95s.49,5.17.89,7.66.69,4.94,1,7.33c.81,4.73,1.44,9.24,2.32,13.35.4,2.06.79,4,1.15,5.91s.8,3.65,1.17,5.32c.73,3.33,1.38,6.24,2,8.61s1.09,4.25,1.42,5.52c.15.64.31,1.12.35,1.47a2.54,2.54,0,0,1-.84.65l-.69.34-.76.08a2.16,2.16,0,0,1-1-.09,14.79,14.79,0,0,1-.47-1.45c-.38-1.27-.95-3.14-1.67-5.51s-1.54-5.28-2.42-8.62q-.66-2.52-1.41-5.33l-1.35-6c-1-4.15-1.72-8.71-2.64-13.52-.76-4.83-1.47-9.94-2-15.25-.31-2.65-.5-5.36-.68-8.1-.09-1.38-.18-2.76-.26-4.14s-.08-2.79-.13-4.19-.07-2.81-.11-4.22,0-2.83,0-4.25c0-2.84.09-5.68.22-8.53.24-5.69.81-11.37,1.47-16.94s1.69-11,2.88-16.21,2.56-10.19,4-14.85,3.15-9,4.78-12.91A121.66,121.66,0,0,1,404.61,207,59.69,59.69,0,0,1,409.18,200.66Z"/><path class="cls-4" d="M395.8,229.11s-2.91-3.64,1.21-16,3.2-30-3.84-26.69S389,221.23,395.8,229.11Z"/><path class="cls-4" d="M388,255.74a120.16,120.16,0,0,1-4.83-23.08c-1.65-14.39-1.5-21.57-7.43-16.1S380.21,249.83,388,255.74Z"/><path class="cls-4" d="M401.57,214.41s10.88-28,24.76-25.87S404.47,208,401.57,214.41Z"/><path class="cls-4" d="M391.92,235.59s22.33-33.09,33.66-25.42S393.25,230.3,391.92,235.59Z"/><path class="cls-4" d="M385.85,253.67s25.09-27.09,32.32-17.42C426.21,247,388.62,246.44,385.85,253.67Z"/><path class="cls-4" d="M384.13,284.58s-10-36.46-15.09-41.16S362,256.38,384.13,284.58Z"/><path class="cls-4" d="M385.64,267.82s20.82-21.58,26.64-21S413.75,263.84,385.64,267.82Z"/><path class="cls-4" d="M384.88,328.19s16.7-26.68,22.33-27.47S411.09,317.67,384.88,328.19Z"/><path class="cls-4" d="M391.09,353.76s6.48-28,12.12-28.27S414.46,345,391.09,353.76Z"/><path class="cls-4" d="M392.2,361.39s-22-40.91-29.39-43.76S357.66,339,392.2,361.39Z"/><path class="cls-4" d="M385.3,319.2s-14.08-40.94-21.5-43.84S353,296.57,385.3,319.2Z"/><path class="cls-4" d="M385.39,300.55s10.87-29.61,22.15-23C417.61,283.4,385.39,300.55,385.39,300.55Z"/><path class="cls-2" d="M144.6,379.21c-2.2-15.53-16.25-26.54-30.3-33.52s-29.63-11.95-40.72-23C69,318,65.46,309.93,70.23,305.46A11,11,0,0,1,76.5,303c14-1.7,16,7.14,29.61,3.22,4.71-1.36,9.37-5.76,8.06-10.48a11.44,11.44,0,0,0-3-4.57c-16.56-17.58-27.84-25-48.3-37.81-11.55-7.22-23.32-17.53-23.78-31.14a7.14,7.14,0,0,1,.86-4.2c1.67-2.53,5.37-2.5,8.32-1.8,14.33,3.36,10.44,4.55,23.29,11.73,3.29,1.85,7.89,3.22,10.46.45,1.63-1.76,1.62-4.47,1.15-6.82-3-15.22-33.77-32.58-13.35-39.1,5.34-1.71,11.11,6.4,15.73,3.23,3.9-2.69.58-8.69-2.75-12.06-4.86-4.93-9.85-11.73-7.32-18.18,2.22-5.67,9.64-7.83,15.47-6.07s10.3,6.39,14.17,11.09a103.55,103.55,0,0,1,15.49,25c4.71,11.1,8.05,24.4,18.77,29.93,6.39,3.3,14.11,2.92,21.08,1.13,3.57-.91,7.48-2.15,10.79-.53,2.42,1.19,3.93,3.68,5,6.18a30.73,30.73,0,0,1-3.25,29c-4,5.7-10,9.93-13.43,16s-2.88,15.5,3.58,18.15c4.65,1.91,9.78-.59,14.62-1.91,8.92-2.44,19.1-.55,26,5.57s10,16.49,6.91,25.19c-5.61,15.57-25.61,19.16-38.89,29a44.1,44.1,0,0,0-17.24,38.74"/><path class="cls-3" d="M150,382.44a1.23,1.23,0,0,1-1.16-1.21c-1.55-116.08-62.73-224.78-63.35-225.86a1.23,1.23,0,1,1,2.14-1.22c.62,1.09,62.11,110.32,63.67,227.05a1.21,1.21,0,0,1-1.21,1.24Z"/><path class="cls-3" d="M126.38,256a1.24,1.24,0,0,1-1.1-.85c-10.22-31-51.93-63.49-52.35-63.81a1.23,1.23,0,1,1,1.51-2c1.74,1.34,42.72,33.31,53.18,65a1.23,1.23,0,0,1-1.24,1.62Z"/><path class="cls-3" d="M136.07,283.33h-.15a1.23,1.23,0,0,1-1.07-1.37c3.68-29.94,32.45-55.36,33.67-56.43a1.23,1.23,0,0,1,1.62,1.86c-.29.25-29.28,25.88-32.85,54.87A1.22,1.22,0,0,1,136.07,283.33Z"/><path class="cls-3" d="M138.82,294.94a1.24,1.24,0,0,1-1-.66c-12.53-23.84-86-63-86.72-63.41a1.23,1.23,0,0,1,1.15-2.18c3.06,1.62,74.87,39.94,87.75,64.45a1.22,1.22,0,0,1-.52,1.66A1.2,1.2,0,0,1,138.82,294.94Z"/><path class="cls-3" d="M147.88,348.17h-.06a1.24,1.24,0,0,1-1.1-1.36c3.4-32.76,52.26-44.24,54.34-44.71a1.23,1.23,0,1,1,.54,2.4c-.49.11-49.21,11.56-52.43,42.57A1.23,1.23,0,0,1,147.88,348.17Z"/><path class="cls-3" d="M149,359.89a1.23,1.23,0,0,1-1.1-.85c-9-27.74-66.73-43.66-67.31-43.82a1.22,1.22,0,0,1-.87-1.51,1.25,1.25,0,0,1,1.51-.87c2.43.66,59.63,16.44,69,45.44a1.23,1.23,0,0,1-.79,1.55A1.17,1.17,0,0,1,149,359.89Z"/><path class="cls-6" d="M265.85,231.24s-2.38-10.56-1.12-10.68,3.45,4.42,3.45,4.42-.44-13.64,1.45-13.88,7.85,3.32,7.85,10.07a91.42,91.42,0,0,1-1.16,13.51Z"/><path class="cls-5" d="M164,366.71A23.35,23.35,0,0,0,157,340c-7.31-5.67-18.64-7.62-21.59-16.38-1-2.83-.79-5.91-1.46-8.82-1.82-7.9-9.34-13.09-16.77-16.32s-15.56-5.45-21.6-10.85c-10-8.88-11.48-23.57-16-36.13-2.4-6.68-8.21-14.13-15-12-5.69,1.77-7.36,9.24-6.12,15.07s4.34,11.3,4.44,17.26c.16,9.5-7.24,17.47-9.16,26.78a24.54,24.54,0,0,0,12.81,26.16c5.59,2.75,12,3.21,18,5s12,5.81,13.15,11.94c1.27,6.92-4.23,13.69-3.22,20.66.75,5.1,4.85,9.08,9.23,11.8,12.48,7.76,50.92,14.31,60.31-7.49"/><path class="cls-4" d="M69.12,255.79l.22.4a11.8,11.8,0,0,1,.64,1.15A26.43,26.43,0,0,1,71.84,262a63.7,63.7,0,0,1,1.72,7.62c.52,3,1,6.34,1.69,10a61.79,61.79,0,0,0,3.2,11.48,36.09,36.09,0,0,0,7,11.2c3,3.46,7.39,5.63,11.92,7.25s9.43,2.85,13.84,5.45a18.53,18.53,0,0,1,5.68,5.12,20.33,20.33,0,0,1,3.12,6.93,38.92,38.92,0,0,1,1,7.32,23.11,23.11,0,0,0,1.33,6.64,23.86,23.86,0,0,0,7.6,10.16,110.73,110.73,0,0,0,9.76,6.74,41.68,41.68,0,0,1,8.15,6.49,17.27,17.27,0,0,1,4.07,7.31,18.44,18.44,0,0,1,.55,5.38c0,.62-.07,1.09-.1,1.41s-.05.48-.05.48l-2.81-.37.05-.42c0-.28.08-.69.11-1.23a15.79,15.79,0,0,0-.37-4.59,14.52,14.52,0,0,0-3.37-6.26,39.65,39.65,0,0,0-7.55-6.23,110.27,110.27,0,0,1-9.83-7.06,25.8,25.8,0,0,1-8-11.16,25,25,0,0,1-1.31-7.19,36.56,36.56,0,0,0-.78-7,18.82,18.82,0,0,0-2.74-6.47,17,17,0,0,0-5.16-4.83c-4.11-2.55-8.93-3.87-13.49-5.63a40.87,40.87,0,0,1-6.61-3.14,22.87,22.87,0,0,1-5.51-4.58A36.81,36.81,0,0,1,78,291.31a62.19,62.19,0,0,1-3-11.62c-.64-3.66-1.07-7-1.55-10a66.87,66.87,0,0,0-1.6-7.64A26.47,26.47,0,0,0,70,257.36c-.24-.53-.48-.91-.62-1.17Z"/><path class="cls-7" d="M206.52,242c-3.45-1.92-11.19-10.92-24.88-.46-4.16,3.19-8.35,7.46-7.77,12.52a13.63,13.63,0,0,0-.23,1.8c-.16,2.93.56,5.88.19,8.79-.8,6.15-6.12,10.57-9.28,15.91-5.42,9.17-4,21.51,2.39,30.05s17,13.35,27.63,13.95c5.94.34,12.12-.61,17.14-3.8s8.66-8.91,8.32-14.85c-.25-4.33-2.5-8.32-2.95-12.63-.63-6-4.42-10.62-2.85-16.41C217.41,265.14,217.16,248,206.52,242Z"/><path class="cls-7" d="M207.28,240.73c-4.4-2.65-8-5.73-13.5-5.64-7.54.13-16.34,6-19.92,12.56-1.94,3.56-1.82,7.82-1.61,11.75.34,6.62-1.79,10.56-5.66,15.68-5.31,7-8,14.57-6.42,23.42,3.07,17.84,21.28,28.46,38.47,27.59,8.07-.41,16.33-3.65,20.54-10.95a16.92,16.92,0,0,0,2.14-11c-.68-4.71-2.24-9.74-3.4-14.36-.73-2.87-2.09-5.58-2.4-8.55s.71-5.79,1.2-8.71a50.53,50.53,0,0,0,.69-12c-.55-7.78-3.19-15.51-10.13-19.74-1.65-1-3.16,1.58-1.52,2.59,6,3.66,8.15,10.47,8.65,17.15.49,6.52-1.73,12.39-2,18.73-.14,3.19,1,6.14,2,9.13,1.15,3.58,1.52,7.29,2.6,10.9,1.38,4.58,2.35,8.7.2,13.24a18.43,18.43,0,0,1-11.7,9.5c-15.71,4.71-35.92-3.86-41.27-19.82a25.69,25.69,0,0,1,3.69-23.81c3.76-5.15,7.65-9.6,7.55-16.3-.09-5.73-1-11,3.13-15.68,3.17-3.63,7.92-6.93,12.67-8,6-1.29,9.81,2.05,14.55,4.91A1.5,1.5,0,0,0,207.28,240.73Z"/><path class="cls-4" d="M238.29,381.29c3.46-13.87,16.13-69.3,1.88-85.42-8-9-46.09-15.42-46.09-15.42l-.79.22s-41.59,6.17-49.57,15.2c-14.25,16.12,2.53,71.55,7,85.42Z"/><path class="cls-4" d="M202.37,281.13s43.51,7.48,52.76-28.4c5.92-22.94,5.71-22.53,5.71-22.53l19.5,1.44S294.15,314.78,237,330C168.27,348.26,202.37,281.13,202.37,281.13Z"/><path class="cls-6" d="M209.61,262.16c-1.81,10.44-4.78,20-14.17,20s-17-10.52-17-19.9a17,17,0,0,1,17-17C204.83,245.22,212.11,247.78,209.61,262.16Z"/><rect class="cls-6" x="188.51" y="268.47" width="13.86" height="21.78" rx="5.32"/><path class="cls-7" d="M196.53,243.08c1.48,4.29,3.26,8.95,7.22,11.18.95.54,2,.9,2.92,1.44a12.08,12.08,0,0,1,5.22,7.39,35.89,35.89,0,0,1,.9,9.2,48.29,48.29,0,0,0,1.76-12.66,19.91,19.91,0,0,0-.44-4.81c-.7-2.95-2.44-5.54-4.14-8.07a7.86,7.86,0,0,0-1.67-2,7.71,7.71,0,0,0-2.23-1l-7.5-2.45"/><path class="cls-7" d="M195.1,243.47c1.43,4.08,3,8.53,6.62,11.22,2.6,1.94,5.51,2.52,7.33,5.48,2.21,3.58,2.19,8.06,2.25,12.12a1.49,1.49,0,0,0,2.92.4c1.75-6.76,3.19-14.85.17-21.46-1.14-2.5-2.84-5.71-5-7.49-2.71-2.18-7.16-2.77-10.38-3.82-1.83-.6-2.61,2.27-.79,2.87,3.06,1,6.42,1.63,9,3.58a16.19,16.19,0,0,1,5.06,7.4c1.94,5.66.55,12.53-.89,18.13l2.92.39c-.07-5.38-.29-11.28-4.05-15.52-1.9-2.14-4.42-2.8-6.63-4.48-3.09-2.34-4.38-6.08-5.62-9.61-.64-1.79-3.51-1-2.87.79Z"/><path class="cls-7" d="M195.44,243.08c-1.48,4.29-3.26,8.95-7.22,11.18-.94.54-2,.9-2.92,1.44-2.68,1.55-6.38,3.48-7.21,6.46s-5,5.33-5.07,8.42c-1.15-4.12,4.42-6.67,4.4-10.95a19.91,19.91,0,0,1,.44-4.81c.7-2.95,2.44-5.54,4.14-8.07a7.7,7.7,0,0,1,1.68-2,7.54,7.54,0,0,1,2.22-1l7.5-2.45"/><path class="cls-7" d="M194,242.68c-1.38,3.91-2.87,8-6.54,10.3-2.48,1.56-5.22,2.47-7.52,4.36-2.46,2-3,4.39-4.87,6.92-1.46,2-3.06,3.39-3.5,5.92h2.87c-.39-2.76,2.43-4.91,3.53-7.12.86-1.71.8-3.15,1-5a17.57,17.57,0,0,1,3.51-9.25c2.88-3.76,7-4.57,11.35-6,1.82-.59,1-3.47-.79-2.87-3.42,1.11-8.12,1.75-10.84,4.27a22.94,22.94,0,0,0-5.3,8.79c-1.31,3.83-.59,7.5-3,11-1.65,2.38-2.68,4.11-2.27,7,.21,1.44,2.63,1.41,2.87,0,.49-2.86,3.15-4.89,4.62-7.33,2.37-3.91,4.58-5.27,8.44-7.38,5.28-2.87,7.41-7.23,9.37-12.79.63-1.81-2.24-2.59-2.87-.79Z"/><path class="cls-6" d="M207.29,262.16s2.5-7.07,5-4.25.14,9.22-3.48,9.23S207.29,262.16,207.29,262.16Z"/><path class="cls-6" d="M181.27,262.16s-2.51-7.07-5-4.25-.14,9.22,3.48,9.23S181.27,262.16,181.27,262.16Z"/><path class="cls-6" d="M190.63,333.56s5.81-8.56,6.82-7.78-.84,4.81-.84,4.81,7.69-9.94,9.24-8.82,4.68,9.94.05,14.86a25.81,25.81,0,0,1-10,6.6Z"/><path class="cls-4" d="M144.15,295.87s-40.25,50.32-8.84,73.72c21,15.64,57.72-5.39,67.06-27.1l-11.74-11.7s-34.38,11.34-28.22,1.67"/><path class="cls-8" d="M151.63,316.83s-10.29,27.4,31,27.4"/><path class="cls-9" d="M300.68,381.29c-3.7-14.81-17.22-74-2-91.2,8.52-9.64,49.21-16.46,49.21-16.46l.84.23s44.41,6.59,52.93,16.23c15.21,17.21-2.7,76.39-7.51,91.2Z"/><path class="cls-6" d="M331.3,254.09c1.94,11.15,5.11,21.31,15.13,21.31s18.14-11.22,18.14-21.24A18.15,18.15,0,0,0,346.43,236C336.41,236,328.63,238.74,331.3,254.09Z"/><rect class="cls-6" x="339.03" y="260.84" width="14.8" height="23.26" rx="5.63" transform="translate(692.86 544.93) rotate(180)"/><path class="cls-6" d="M281.72,328.42s-3.14,24.05,1.06,32.81c11.5,24,58,11.07,58,11.07L340,362.23s-23.83-3.79-27.66-9.21c-3.68-5.2.49-10.19,1.75-21.71Z"/><path class="cls-6" d="M413,332.14,389.82,318.8c-5.05,10.29-4.39,16.75-10,19-5.87,2.39-22-6.78-22-6.78l-3.24,8.06s28.27,32.48,44.13,21.93c5.24-3.48,11.67-14.31,15.25-21.1A7.57,7.57,0,0,1,413,332.14Z"/><path class="cls-9" d="M298.67,290.09s-18.08,8-20.05,46.05a59.21,59.21,0,0,0,39.27,6.66C339.49,339,298.67,290.09,298.67,290.09Z"/><path class="cls-6" d="M340,362.23s4.34-4.61,5.16-3.3-.44,3-.44,3,7.78-2.76,8.66-2,.82,6.21-2,8.51-10.55,3.94-10.55,3.94Z"/><path class="cls-9" d="M402.79,292.74s13.91,17,11.28,50.35c0,0-17.18-1.66-40-22.28C357.83,306.1,402.79,292.74,402.79,292.74Z"/><path class="cls-4" d="M335.74,316.53h17.88a1.31,1.31,0,0,1,1.31,1.31V328a7.8,7.8,0,0,1-7.8,7.8h-4.91a7.8,7.8,0,0,1-7.8-7.8V317.84A1.31,1.31,0,0,1,335.74,316.53Z"/><path class="cls-4" d="M352.19,329.34v-6.73l.49-.28c.59-.34,3.59-2,5.46-.87a2.85,2.85,0,0,1,1.27,2.73c-.06,4-4.09,5.09-6.21,5.13Zm2-5.56v3.45c1.26-.24,3.25-1,3.28-3.08,0-.37,0-.84-.3-1C356.6,322.84,355.21,323.27,354.16,323.78Z"/><path class="cls-6" d="M358.21,331.47s-.41-6-1.21-5.24a6.42,6.42,0,0,0-1.28,2.54l-6.84-6.08s-4.87,7-2.73,10.82,9.28,6.53,9.28,6.53l3.4-6.34Z"/><path class="cls-10" d="M334,365.5h48.46a0,0,0,0,1,0,0v10.28a0,0,0,0,1,0,0H334a1.4,1.4,0,0,1-1.4-1.4V366.9A1.4,1.4,0,0,1,334,365.5Z"/><rect class="cls-11" x="335.57" y="367.13" width="47.12" height="7.03"/><rect class="cls-12" x="337" y="367.93" width="45.7" height="0.93"/><rect class="cls-12" x="337" y="369.3" width="45.7" height="0.93"/><rect class="cls-12" x="337" y="370.66" width="45.7" height="0.93"/><rect class="cls-12" x="337" y="372.04" width="45.7" height="0.93"/><path class="cls-13" d="M368.66,365.5H320.21a1.4,1.4,0,0,1-1.4-1.4v-7.48a1.39,1.39,0,0,1,1.4-1.4h48.45Z"/><path class="cls-14" d="M368.83,365.66H320.65a2,2,0,0,1-2-2v-6.6a2,2,0,0,1,2-2h48.18Zm-48.18-10.28a1.68,1.68,0,0,0-1.68,1.68v6.6a1.68,1.68,0,0,0,1.68,1.67H368.5v-9.95Z"/><rect class="cls-11" x="321.77" y="356.84" width="47.12" height="7.02"/><rect class="cls-12" x="323.19" y="357.65" width="45.7" height="0.93"/><rect class="cls-12" x="323.19" y="359.01" width="45.7" height="0.93"/><rect class="cls-12" x="323.19" y="360.37" width="45.7" height="0.93"/><rect class="cls-12" x="323.19" y="361.76" width="45.7" height="0.93"/><path class="cls-6" d="M335.09,254.09s-2.67-7.54-5.28-4.53-.15,9.85,3.71,9.86S335.09,254.09,335.09,254.09Z"/><path class="cls-6" d="M361.56,254.09s2.68-7.54,5.29-4.53.15,9.85-3.71,9.86S361.56,254.09,361.56,254.09Z"/><path class="cls-9" d="M365.2,250.93a11.27,11.27,0,0,0-2.25,0c-.1.15-4-9.12-8.05-8.61s-3.55,5.24-10.81,3.21-10.53,4.61-13.6,4.3-11.06-10.31-5.32-14.23,5-5.06,9.8-8.27,15.09-6.18,17.56-2,4.45,2.76,8.16,2.26,6.59,6.58,7.24,10S365.2,250.93,365.2,250.93Z"/><path class="cls-5" d="M412.31,188.33"/><path class="cls-5" d="M412.31,189.82a1.49,1.49,0,0,0,0-3,1.49,1.49,0,0,0,0,3Z"/><path class="cls-5" d="M85.51,350.09"/><path class="cls-5" d="M85.51,351.58a1.49,1.49,0,0,0,0-3,1.49,1.49,0,0,0,0,3Z"/><path class="cls-2" d="M65,174.32c4.72,0,4.72-7.33,0-7.33s-4.73,7.33,0,7.33Z"/><path class="cls-5" d="M436.12,321.35"/><path class="cls-5" d="M436.12,324.32c3.83,0,3.84-5.95,0-5.95s-3.83,5.95,0,5.95Z"/><path class="cls-15" d="M152.71,370.64h22.94v5.61H147.1A5.61,5.61,0,0,1,152.71,370.64Z"/><path class="cls-16" d="M262.15,314.78H189.36a6.54,6.54,0,0,0-6.2,5.32l-9.35,56.15h83.42l9.35-56.15A4.39,4.39,0,0,0,262.15,314.78Z"/><path class="cls-17" d="M228.49,345.51a7.86,7.86,0,1,1-7.85-7.86A7.85,7.85,0,0,1,228.49,345.51Z"/><line class="cls-18" x1="88.82" y1="379.53" x2="457.09" y2="379.53"/><rect class="cls-19" x="236.94" y="152.98" width="80.26" height="149.55"/><rect class="cls-19" x="236.94" y="152.98" width="80.26" height="149.55"/><path class="cls-4" d="M287.36,151.19a10.3,10.3,0,1,1-10.29-10.29A10.3,10.3,0,0,1,287.36,151.19Z"/><path class="cls-20" d="M267.75,112.8h18.63a30.81,30.81,0,0,1,30.81,30.81V153a0,0,0,0,1,0,0H236.94a0,0,0,0,1,0,0v-9.37A30.81,30.81,0,0,1,267.75,112.8Z"/><path class="cls-20" d="M276,98.62h0a7.39,7.39,0,0,1,7.39,7.39v8.62A7.39,7.39,0,0,1,276,122h0a7.39,7.39,0,0,1-7.39-7.39V106A7.39,7.39,0,0,1,276,98.62Z"/><line class="cls-21" x1="275.83" y1="107.13" x2="275.83"/><circle class="cls-4" cx="172.26" cy="104.44" r="36.1" transform="translate(30.5 247.58) rotate(-76.51)"/><circle class="cls-4" cx="50.3" cy="339.62" r="14.7" transform="translate(-140.86 54.44) rotate(-25.41)"/><circle class="cls-20" cx="476.61" cy="214.41" r="28.63" transform="translate(158.43 629.01) rotate(-76.72)"/><path class="cls-2" d="M478.57,144.6H433a2,2,0,0,0,0,4h45.57a2,2,0,0,0,0-4Z"/><path class="cls-2" d="M418.5,144.59h-8.9a2,2,0,1,0,0,4h8.9a2,2,0,1,0,0-4Z"/><path class="cls-2" d="M457.16,160.47a2,2,0,0,1-2,2h-5.7a2,2,0,0,1,0-4h5.7A2,2,0,0,1,457.16,160.47Zm-15.67,0a2,2,0,0,1-2,2h-10a2,2,0,0,1,0-4h10A2,2,0,0,1,441.49,160.47Zm-19.93,0a2,2,0,0,1-2,2h-10a2,2,0,0,1,0-4h10A2,2,0,0,1,421.56,160.47Z"/><path class="cls-2" d="M178.24,124H145.67a2,2,0,0,0,0,4h32.57a2,2,0,0,0,0-4Z"/><path class="cls-2" d="M131.17,124h-8.9a2,2,0,1,0,0,4h8.9a2,2,0,1,0,0-4Z"/><path class="cls-2" d="M154.16,139.84a2,2,0,0,1-2,2h-10a2,2,0,0,1,0-4h10A2,2,0,0,1,154.16,139.84Zm-19.93,0a2,2,0,0,1-2,2h-10a2,2,0,0,1,0-4h10A2,2,0,0,1,134.23,139.84Z"/><path class="cls-22" d="M112.49,231.13a1,1,0,0,0-.95,1v2.22a1,1,0,1,0,1.91,0v-2.22A1,1,0,0,0,112.49,231.13Z"/><path class="cls-22" d="M110,228.9h-2.21a1,1,0,1,0,0,1.92H110a1,1,0,1,0,0-1.92Z"/><path class="cls-22" d="M112.49,224.31a1,1,0,0,0-.95,1v2.21a1,1,0,1,0,1.91,0v-2.21A1,1,0,0,0,112.49,224.31Z"/><path class="cls-22" d="M117.21,228.75H115a1,1,0,1,0,0,1.91h2.21a1,1,0,1,0,0-1.91Z"/><path class="cls-4" d="M231.93,108.24s1.57,11.21-11.53,11c0,0,11.26.11,10.95,10.64,0,0,1-8.28,11.35-10.13C242.7,119.71,234,121.71,231.93,108.24Z"/><path class="cls-4" d="M242.82,105.76s.76,5.42-5.57,5.3c0,0,5.44,0,5.3,5.14,0,0,.49-4,5.48-4.9C248,111.3,243.81,112.27,242.82,105.76Z"/><path class="cls-20" d="M465.11,258a1,1,0,0,0-.95,1v2.21a1,1,0,1,0,1.91,0v-2.21A1,1,0,0,0,465.11,258Z"/><path class="cls-20" d="M462.61,255.76h-2.22a1,1,0,0,0,0,1.91h2.22a1,1,0,1,0,0-1.91Z"/><path class="cls-20" d="M465.11,251.16a1,1,0,0,0-.95,1v2.22a1,1,0,0,0,1.91,0v-2.22A1,1,0,0,0,465.11,251.16Z"/><path class="cls-20" d="M469.83,255.6h-2.22a1,1,0,0,0,0,1.92h2.22a1,1,0,1,0,0-1.92Z"/><path class="cls-20" d="M184.15,204.12a.94.94,0,0,0-1,.95v2.22a1,1,0,0,0,1.91,0v-2.22A1,1,0,0,0,184.15,204.12Z"/><path class="cls-20" d="M181.65,201.89h-2.22a1,1,0,0,0,0,1.91h2.22a1,1,0,1,0,0-1.91Z"/><path class="cls-20" d="M184.15,197.3a1,1,0,0,0-1,.95v2.22a1,1,0,1,0,1.91,0v-2.22A1,1,0,0,0,184.15,197.3Z"/><path class="cls-20" d="M188.87,201.74h-2.22a1,1,0,0,0,0,1.91h2.22a1,1,0,1,0,0-1.91Z"/></g></g></svg>