<svg xmlns="http://www.w3.org/2000/svg" viewBox="0 0 144 305.9"><defs><style>.cls-1,.cls-10{fill:#1a2e35;}.cls-2{fill:#ff8b7b;}.cls-3,.cls-6{opacity:0.2;}.cls-4{fill:#007cff;}.cls-5{fill:#fafafa;opacity:0.5;}.cls-7{fill:#e7e7e7;}.cls-8{fill:#fff;}.cls-9{fill:#ff5551;}.cls-10{opacity:0.3;}</style></defs><title>girl</title><g id="Layer_2" data-name="Layer 2"><g id="Layer_1-2" data-name="Layer 1"><path class="cls-1" d="M75,10.82c7.23-2,11.29,9.38,13.23,18.91A13.58,13.58,0,0,0,98.62,40.66S73.15,57.23,54.17,48.07c-15.28-7.38-10.4-24.83-3.52-32.87S70.57,3.91,75,10.82Z"/><polygon class="cls-2" points="60.9 296.99 69.54 297.84 78.53 277.28 69.89 276.44 60.9 296.99"/><polygon class="cls-2" points="6.12 271.64 13.1 277.17 25.76 260.66 18.79 255.13 6.12 271.64"/><path class="cls-1" d="M15.84,274l-5.6-8.35a.71.71,0,0,0-.9-.25L2.1,268.89A1.43,1.43,0,0,0,1.58,271c2,2.88,3.11,4.17,5.57,7.83,1.51,2.26,4.53,7.48,6.62,10.59s5.28,1.22,4.69-.26c-2.65-6.66-2.58-10.5-2.25-13.56A2.31,2.31,0,0,0,15.84,274Z"/><path class="cls-1" d="M70.68,295.17H60.08a.88.88,0,0,0-.84.64l-2.31,8.39a1.32,1.32,0,0,0,1.3,1.68c3.74,0,5.51,0,10.17,0H82.66c3.87,0,4.69-3.92,3.08-4.27-7.19-1.59-11.33-3.79-13.55-5.88A2.18,2.18,0,0,0,70.68,295.17Z"/><polygon class="cls-3" points="78.52 277.29 73.89 287.88 64.88 287.88 69.88 276.44 78.52 277.29"/><polygon class="cls-3" points="18.79 255.14 25.76 260.67 19.23 269.17 12.25 263.64 18.79 255.14"/><path class="cls-4" d="M86.78,113s16.74,52.93,11.79,91.66c-3.31,25.93-20.78,80.15-20.78,80.15l-15.43-.4s12.5-55.06,13.79-76.56c2.21-36.78-16-94.91-16-94.91Z"/><polygon class="cls-1" points="79.96 285.61 60.9 285.12 62 279.27 81.33 279.27 79.96 285.61"/><path class="cls-4" d="M78.85,113.09s-2.34,57.82-15.23,90.37c-10.4,26.28-40.82,65-40.82,65l-9.28-8.08s19.3-40.94,27.2-58.48c19.37-43-1.92-72.82,9.75-89Z"/><polygon class="cls-1" points="23.77 269.58 11.83 259.75 15.07 254.47 28.14 265.34 23.77 269.58"/><path class="cls-4" d="M17.59,278.54c-1.09-.27-1.95-2.16-2.36-3.27a.19.19,0,0,1,0-.19.19.19,0,0,1,.19,0c.34.14,3.29,1.42,3.48,2.52a.73.73,0,0,1-.25.65,1.25,1.25,0,0,1-.75.36A1,1,0,0,1,17.59,278.54Zm.08-.34a.85.85,0,0,0,.78-.25.34.34,0,0,0,.14-.33c-.12-.68-1.86-1.61-2.88-2.08C16.34,277.06,17.06,278.05,17.67,278.2Z"/><path class="cls-4" d="M15.32,275.36a.15.15,0,0,1-.1-.14.16.16,0,0,1,.08-.16c.09-.06,2.22-1.48,3.46-1.15a1,1,0,0,1,.71.57.7.7,0,0,1-.09.88,2,2,0,0,1-1.24.42A6.31,6.31,0,0,1,15.32,275.36Zm.46-.19c1,.33,2.87.43,3.35-.06.08-.08.16-.21,0-.47a.72.72,0,0,0-.49-.39,1.31,1.31,0,0,0-.49,0A6.66,6.66,0,0,0,15.78,275.17Z"/><path class="cls-4" d="M72.5,296.52a.18.18,0,0,1-.14-.16.18.18,0,0,1,.1-.18c.43-.2,4.29-2,5.25-1.32a.55.55,0,0,1,.25.54,1.26,1.26,0,0,1-.52,1,3.45,3.45,0,0,1-2,.49A14.06,14.06,0,0,1,72.5,296.52Zm.6-.24c1.14.21,3.26.49,4.13-.17a.93.93,0,0,0,.38-.73.22.22,0,0,0-.1-.23.73.73,0,0,0-.43-.09A13.5,13.5,0,0,0,73.1,296.28Z"/><path class="cls-4" d="M72.42,296.48a.19.19,0,0,1-.06-.18c0-.16.92-3.95,3-3.71.52.06.67.32.69.53.14,1-2.29,2.91-3.45,3.39h-.07A.15.15,0,0,1,72.42,296.48Zm.38-.46c1.26-.65,3-2.24,2.91-2.85,0-.05,0-.19-.39-.23h-.15C73.84,292.93,73.06,295.14,72.8,296Z"/><polygon class="cls-4" points="140.93 27.58 144 20.84 123.96 12.52 104.54 2.83 101.47 9.57 121.51 17.89 140.93 27.58"/><polygon class="cls-5" points="140.93 27.58 144 20.84 123.96 12.52 104.54 2.83 101.47 9.57 121.51 17.89 140.93 27.58"/><rect class="cls-4" x="117.72" y="9.63" width="2.5" height="8.02" rx="1.13" transform="translate(228.76 61.47) rotate(-162.99)"/><rect class="cls-4" x="125.15" y="13.09" width="2.5" height="8.02" rx="1.13" transform="translate(219.57 104.23) rotate(-144.62)"/><path class="cls-2" d="M120.26,24.22l-2.12-7.7,9.19,1.72s-.12,5.41-4.49,8.18Z"/><polygon class="cls-2" points="121.25 9.3 127.83 11.84 127.33 18.24 118.14 16.52 121.25 9.3"/><path class="cls-2" d="M128,41.65c-.23-8.19-3.58-19.6-3.58-19.6l-4.65-.58A90.54,90.54,0,0,1,120.19,39Z"/><path class="cls-1" d="M83.05,76.91c.57.17.92.24,1.37.35l1.25.29,2.45.53c1.64.34,3.27.66,4.93.93a87,87,0,0,0,10.21,1.18,42,42,0,0,0,11.46-.83,23.38,23.38,0,0,0,6.62-2.57c.56-.33,1.12-.74,1.67-1.12l.21-.15.29-.23.57-.49c.33-.31.67-.64,1-1a17.24,17.24,0,0,0,2.49-3.63,29.4,29.4,0,0,0,2.27-6c.49-1.85.81-3.6,1.09-5.31.58-3.42.84-6.69,1.1-9.92s.39-6.42.5-9.6l.15-4.78.06-2.39c0-.83.06-1.57.06-2.51l-20,1.78c.13.57.26,1.33.39,2l.33,2.12c.2,1.42.36,2.85.52,4.28.27,2.85.46,5.7.49,8.51a67.1,67.1,0,0,1-.33,8.13c-.15,1.27-.36,2.5-.6,3.58a11.82,11.82,0,0,1-.79,2.46c-.1.22-.18.28,0,.12s.1-.11.16-.16l.13-.12.08-.05h0c-.08,0-.11.09-.2.14a6.09,6.09,0,0,1-1.81.65,22.2,22.2,0,0,1-6.56.14,48.93,48.93,0,0,1-7.69-1.5c-1.29-.37-2.6-.77-3.87-1.23-.64-.23-1.27-.46-1.9-.71l-.91-.39a7.72,7.72,0,0,1-.78-.36Z"/><g class="cls-6"><path d="M92.12,235.38c-1.41,5.48-2.91,11-4.39,16.27-4.36-1.21-10.56-3-17.44-5.25,1.17-6.08,2.3-12.29,3.26-18.11Z"/><path d="M35.32,213.71l19.57,7.46c-3,5.28-6.29,10.62-9.6,15.71-6.4-2.92-12.18-6.08-16.36-9.4Z"/></g><path class="cls-1" d="M92.32,63.71c-.58,13.72,17.25,70.16,8.94,185.39-8.35,1.88-68.43-23.52-75.5-30.75.6-13.81,25.94-103.35,19.69-154-.4-3.21,1.43-6.25,4.63-6.72,2.72-.4,6.1-.8,9.51-1a116,116,0,0,1,16.49,0c4.11.39,8.63,1.15,11.7,1.73A5.36,5.36,0,0,1,92.32,63.71Z"/><path class="cls-2" d="M61.27,38.12c1,5.3,2,15-1.68,18.56,0,0,5.29,8.27,14.31,12.35,7.18-6.08,2.18-12.31,2.18-12.31-5.92-1.43-5.75-5.82-4.71-9.94Z"/><path class="cls-7" d="M74.28,70.26l-1.12-6.41L61,54,56.82,56.4S67.75,70.61,74.28,70.26Z"/><path class="cls-7" d="M74.28,70.26l-1.12-6.41,1.6-8.15,3.88.7S80.8,70.61,74.28,70.26Z"/><path class="cls-8" d="M73.16,63.85s-5.23,5.16-5.5,9.84c-3.52-3.44-12-14.47-12.16-17.64,1.85-1.54,5.59-2.48,5.59-2.48Z"/><path class="cls-8" d="M73.16,63.85s5.08,4,5.35,8.72C82,69.13,80.38,59.39,79.94,56.7c-1.86-1.55-5.54-2.05-5.54-2.05Z"/><path class="cls-3" d="M65.39,41.65l6,5.13a16.71,16.71,0,0,0-.51,2.92c-2.26-.33-5.66-2.36-5.9-4.73A9.5,9.5,0,0,1,65.39,41.65Z"/><path class="cls-2" d="M55.85,30.14c3,8.37,4,12,9.58,15.12,8.34,4.73,18-.73,17.58-9.81C82.66,27.28,77.89,15,68.58,14A12.1,12.1,0,0,0,55.85,30.14Z"/><path class="cls-1" d="M59.35,20.41c5.26,1.85,4.8,12.34-.43,16S47.47,16.23,59.35,20.41Z"/><path class="cls-1" d="M74.75,16.62c-5.3,4.64-12.92,6.45-15.58,5.1-1.94,1.51-8.41,4.57-4.56-2.72s10.67-8.23,15.11-8.17S79.27,12.65,74.75,16.62Z"/><path class="cls-2" d="M55.82,38a7,7,0,0,0,4.29,3c2.27.49,3.12-1.72,2.24-3.9-.8-2-2.94-4.59-5.1-4.1S54.57,36.1,55.82,38Z"/><path class="cls-1" d="M69.45,28.84c.2.69.73,1.15,1.18,1s.66-.8.46-1.49-.72-1.15-1.18-1S69.25,28.14,69.45,28.84Z"/><path class="cls-1" d="M77.29,26.6c.2.69.72,1.15,1.18,1s.66-.79.46-1.49-.73-1.15-1.18-1S77.09,25.91,77.29,26.6Z"/><path class="cls-1" d="M77.56,25.21l1.53-1S78.61,25.8,77.56,25.21Z"/><path class="cls-9" d="M75.56,28.38a19.36,19.36,0,0,0,3.73,3.72A3.09,3.09,0,0,1,77,33.27Z"/><path class="cls-1" d="M74,36.91a7.28,7.28,0,0,0,1.31-.24.18.18,0,0,0,.12-.22.17.17,0,0,0-.22-.12,5.75,5.75,0,0,1-5.12-.88.19.19,0,0,0-.25,0,.18.18,0,0,0,0,.25A5.88,5.88,0,0,0,74,36.91Z"/><path class="cls-1" d="M65.16,24.76a.37.37,0,0,0,.29-.19,3.45,3.45,0,0,1,2.46-1.94.34.34,0,0,0,.3-.39.35.35,0,0,0-.39-.31,4.13,4.13,0,0,0-3,2.33.34.34,0,0,0,.16.47A.29.29,0,0,0,65.16,24.76Z"/><path class="cls-1" d="M80,22.22a.37.37,0,0,0,.29-.21.35.35,0,0,0-.18-.46,4.13,4.13,0,0,0-3.79.1.35.35,0,0,0,.37.6,3.41,3.41,0,0,1,3.13-.06A.57.57,0,0,0,80,22.22Z"/><path class="cls-2" d="M11.75,62.11l-1-7.93L2.92,59.31s2.2,5,7.29,5.82Z"/><polygon class="cls-2" points="5.09 48.71 0 53.6 2.92 59.31 10.74 54.19 5.09 48.71"/><path class="cls-2" d="M11.36,81.16C8.42,73.5,7.12,61.69,7.12,61.69l4.07-2.33a91.26,91.26,0,0,0,6.3,16.35Z"/><path class="cls-1" d="M46,60.76c-.53,1.12-1.21,2.46-1.87,3.67s-1.37,2.48-2.09,3.7c-1.43,2.44-2.93,4.82-4.51,7.1a77.13,77.13,0,0,1-4.93,6.43c-.85,1-1.7,1.91-2.55,2.75a21.9,21.9,0,0,1-2.42,2,3.91,3.91,0,0,1-.51.35l-.23.14c-.06,0,0,0,0,0l.08,0a3.61,3.61,0,0,1,1.24-.28,3.36,3.36,0,0,1,1.23.16c.22.07.23.1.12,0a8.06,8.06,0,0,1-1.37-1.52,27.61,27.61,0,0,1-1.75-2.78,49,49,0,0,1-3-7c-.46-1.25-.83-2.55-1.21-3.85l-.5-2c-.08-.32-.15-.65-.22-1s-.14-.68-.15-.86L2.13,73.66c.2.52.35.85.52,1.26l.51,1.14,1,2.25c.66,1.49,1.38,3,2.09,4.44a90.11,90.11,0,0,0,4.91,8.92,43.68,43.68,0,0,0,3.28,4.59,26.76,26.76,0,0,0,5,4.75,17.36,17.36,0,0,0,4,2.15A14.77,14.77,0,0,0,29,104a14.17,14.17,0,0,0,5.53-1.4l.58-.29c.18-.1.4-.21.49-.27l.73-.44c.49-.3.92-.59,1.35-.89a53,53,0,0,0,8.08-7.33c2.25-2.48,4.32-5,6.27-7.47s3.84-5,5.67-7.57l2.72-3.83,1.35-1.94c.46-.66.89-1.26,1.39-2Z"/><path class="cls-1" d="M69.72,27.44l1.53-1S70.77,28,69.72,27.44Z"/><polygon class="cls-1" points="33.42 14.13 33.57 14.76 89.89 0.63 89.74 0 60.1 1.2 33.42 14.13"/><polygon class="cls-4" points="33.57 14.76 63.2 13.56 89.89 0.63 60.26 1.83 33.57 14.76"/><path class="cls-4" d="M47.76,21.47a154.46,154.46,0,0,1,32.79-8.23c.71-.1,1.22-.64,1.09-1.17l-2-8a1,1,0,0,0-1.19-.62A154.39,154.39,0,0,0,45,11.85a1,1,0,0,0-.76,1.1l2,8A1.1,1.1,0,0,0,47.76,21.47Z"/><path class="cls-10" d="M47.76,21.47a154.46,154.46,0,0,1,32.79-8.23c.71-.1,1.22-.64,1.09-1.17l-2-8a1,1,0,0,0-1.19-.62A154.39,154.39,0,0,0,45,11.85a1,1,0,0,0-.76,1.1l2,8A1.1,1.1,0,0,0,47.76,21.47Z"/><path class="cls-4" d="M42.75,44.5a.53.53,0,0,0,.41-.87c-4.9-5.77-2.18-8.38,1.58-12,2.17-2.08,4.63-4.44,5.87-7.79,3.43-9.2-7-15.28-7.15-15.34a.53.53,0,1,0-.53.92c.4.23,9.8,5.7,6.69,14.06-1.16,3.11-3.52,5.38-5.61,7.39-3.7,3.55-7.2,6.91-1.66,13.44A.53.53,0,0,0,42.75,44.5Z"/><path class="cls-4" d="M41.27,44a1.49,1.49,0,1,1,1.48,1.48A1.49,1.49,0,0,1,41.27,44Zm1.06,0a.43.43,0,0,0,.85,0,.43.43,0,1,0-.85,0Z"/></g></g></svg>