<svg xmlns="http://www.w3.org/2000/svg" viewBox="0 0 116.98 70.75"><defs><style>.cls-1{fill:#007cff;}.cls-2,.cls-3{fill:#1a2e35;}.cls-3{opacity:0.3;}</style></defs><title>hat</title><g id="Layer_2" data-name="Layer 2"><g id="Layer_1-2" data-name="Layer 1"><path class="cls-1" d="M62.25,39.25a1.08,1.08,0,0,1-.38.82c-3,2.5-6.18,1.35-9.57.13-5.08-1.82-10.83-3.88-18.75,4.44-15.64,16.45-31,6.25-31.14,6.15A1.07,1.07,0,1,1,3.62,49c.56.38,14,9.25,28.38-5.85,8.87-9.34,15.9-6.82,21-5,3.48,1.24,5.54,1.87,7.47.24a1.08,1.08,0,0,1,1.51.13A1,1,0,0,1,62.25,39.25Z"/><path class="cls-1" d="M6,49.86A3,3,0,1,1,2.25,47h0A3,3,0,0,1,5.91,49.1,2.84,2.84,0,0,1,6,49.86Zm-3.87,0a.76.76,0,0,0,0,.21.86.86,0,0,0,.4.53.82.82,0,0,0,.65.09A.86.86,0,1,0,2.79,49h0a.86.86,0,0,0-.53.4A.83.83,0,0,0,2.14,49.86Z"/><polygon class="cls-2" points="115.92 0 116.98 1.37 34.84 64.41 33.78 63.03 65.08 18.77 115.92 0"/><polygon class="cls-1" points="116.98 1.37 85.69 45.63 34.84 64.41 66.13 20.15 116.98 1.37"/><path class="cls-1" d="M113.78,33.38A223.14,223.14,0,0,0,66,70.08,2,2,0,0,1,62.89,70l-11-14.38A2,2,0,0,1,52.09,53a222.76,222.76,0,0,1,48.78-37.43,2,2,0,0,1,2.6.45l11,14.38A2,2,0,0,1,113.78,33.38Z"/><path class="cls-3" d="M113.78,33.38A223.14,223.14,0,0,0,66,70.08,2,2,0,0,1,62.89,70l-11-14.38A2,2,0,0,1,52.09,53a222.76,222.76,0,0,1,48.78-37.43,2,2,0,0,1,2.6.45l11,14.38A2,2,0,0,1,113.78,33.38Z"/></g></g></svg>