<svg xmlns="http://www.w3.org/2000/svg" viewBox="0 0 574.72 388.44"><defs><style>.cls-1{fill:#f2f0ee;}.cls-2{fill:#0042c5;}.cls-3{fill:#002087;}.cls-4{fill:#ffbc3c;}.cls-5{fill:#ffaa28;}.cls-6{fill:none;stroke:#002ca6;stroke-linecap:round;stroke-linejoin:round;stroke-width:6px;}.cls-7{fill:#91a8f6;}.cls-11,.cls-8{fill:#053dbc;}.cls-10,.cls-9{fill:#6074ff;}.cls-10,.cls-11,.cls-12,.cls-13,.cls-14,.cls-17,.cls-9{fill-rule:evenodd;}.cls-10{stroke:#fff;stroke-miterlimit:10;stroke-width:0.25px;}.cls-12,.cls-15{fill:#fff;}.cls-13{fill:#100843;}.cls-14{fill:#9c9dcc;}.cls-16,.cls-17{fill:#d6d6f9;}.cls-18{fill:#100c4c;}</style></defs><title>memoryImg</title><g id="Layer_2" data-name="Layer 2"><g id="Layer_1-2" data-name="Layer 1"><path class="cls-1" d="M475.44,92.8C336.16,94.51,312.68,41.54,225.76,36.51,75,27.8-29.88,156.54,7.65,299s186.79,72.12,186.79,72.12C302.16,328,311.31,352.62,458.62,307.15S614.72,91.1,475.44,92.8Z"/><path class="cls-2" d="M25.5,224.79H71.07a2,2,0,0,1,0,4H25.5a2,2,0,0,1,0-4Z"/><path class="cls-2" d="M85.57,224.78h8.91a2,2,0,0,1,0,4H85.57a2,2,0,0,1,0-4Z"/><path class="cls-2" d="M48.91,238.67h5.7a2,2,0,0,1,0,4h-5.7a2,2,0,1,1,0-4Zm15.66,0h10a2,2,0,0,1,0,4h-10a2,2,0,0,1,0-4Zm19.94,0h10a2,2,0,1,1,0,4h-10a2,2,0,1,1,0-4Z"/><path class="cls-1" d="M389.83,7.91S295-4.8,306.1,33.59,472.59,102,473.2,65.24,389.83,7.91,389.83,7.91Z"/><path class="cls-2" d="M432.06,311.65h4.79l4.62-2.73c-2-15.55,8.62-29.9,20.31-40.35s25.4-19.4,33.14-33c3.22-5.68,4.45-14.41-1.33-17.45a10.91,10.91,0,0,0-6.71-.74c-14,2.09-13.56,11.14-27.7,11-4.89-.06-10.55-3.06-10.55-8a11.49,11.49,0,0,1,1.69-5.21c11.3-21.34,20.2-31.48,36.53-49.27,9.21-10,17.82-23.1,14.65-36.34a7.19,7.19,0,0,0-1.95-3.82c-2.27-2-5.84-1-8.5.47-12.92,7-8.85,7.16-19.33,17.5-2.69,2.65-6.76,5.2-10,3.21-2-1.26-2.75-3.88-2.92-6.27-1.13-15.47,23.9-40.38,2.49-41.24-5.61-.23-9,9.12-14.31,7.29-4.48-1.55-2.87-8.22-.56-12.35,3.39-6,6.39-13.93,2.24-19.48-3.65-4.87-11.37-5-16.52-1.74S423.92,82,421.45,87.55a103.16,103.16,0,0,0-8.3,28.19c-1.6,12-1.29,25.67-10.15,33.84-5.29,4.89-12.83,6.56-20,6.69-3.69.07-7.78-.08-10.54,2.36-2,1.79-2.82,4.59-3.15,7.27A30.73,30.73,0,0,0,380.11,193c5.4,4.42,12.28,6.92,17.2,11.87s6.9,14.18,1.38,18.45c-4,3.07-9.59,2-14.62,2-9.24,0-18.55,4.55-23.61,12.29s-5.32,18.57,0,26.13c9.55,13.51,29.79,11.66,45.21,17.66A44.15,44.15,0,0,1,432.06,311.65Z"/><path class="cls-3" d="M437.87,311.65c-29.19-112.22.86-233,1.17-234.23a1.23,1.23,0,0,0-2.39-.61c-.31,1.21-30.4,122.17-1.32,234.84Z"/><path class="cls-3" d="M426.31,185.29a1.21,1.21,0,0,0,.83-1.1c1.64-32.57,33.21-75,33.52-75.43a1.23,1.23,0,1,0-2-1.48c-1.32,1.76-32.34,43.46-34,76.78a1.25,1.25,0,0,0,1.17,1.3A1.43,1.43,0,0,0,426.31,185.29Z"/><path class="cls-3" d="M424.23,214.23l.14,0a1.23,1.23,0,0,0,.67-1.61c-11.5-27.89-46-44.75-47.45-45.46a1.24,1.24,0,0,0-1.64.58,1.22,1.22,0,0,0,.57,1.64c.35.17,35.1,17.17,46.24,44.18A1.24,1.24,0,0,0,424.23,214.23Z"/><path class="cls-3" d="M424.66,226.15a1.23,1.23,0,0,0,.81-.91c5.75-26.31,66.16-83.59,66.77-84.17a1.23,1.23,0,0,0-1.7-1.79c-2.51,2.38-61.57,58.39-67.47,85.44a1.22,1.22,0,0,0,.94,1.46A1.19,1.19,0,0,0,424.66,226.15Z"/><path class="cls-3" d="M430.07,279.87l.05,0a1.22,1.22,0,0,0,.7-1.59c-12-30.69-62.13-28.78-64.26-28.68a1.23,1.23,0,0,0,.12,2.46c.5,0,50.51-1.93,61.85,27.11A1.23,1.23,0,0,0,430.07,279.87Z"/><path class="cls-3" d="M432.15,291.46a1.23,1.23,0,0,0,.83-1.11c1.29-29.13,52.74-59.82,53.26-60.13A1.23,1.23,0,0,0,485,228.1c-2.17,1.28-53.12,31.68-54.47,62.14a1.23,1.23,0,0,0,1.18,1.28A1.14,1.14,0,0,0,432.15,291.46Z"/><path class="cls-4" d="M138.85,106s.41.57,1.11,1.69,1.67,2.8,2.86,5,2.5,4.84,3.9,8,2.79,6.72,4.25,10.66,2.79,8.3,4,12.95,2.34,9.59,3.26,14.75,1.64,10.52,2.27,16,.92,11,1,16.63c.07,2.79.14,5.58.07,8.36,0,1.39,0,2.78,0,4.16l-.18,4.14-.18,4.1c-.11,1.36-.21,2.71-.31,4.05-.19,2.69-.37,5.34-.69,7.95s-.49,5.17-.88,7.66-.7,4.94-1,7.33c-.81,4.73-1.43,9.24-2.32,13.35q-.6,3.09-1.15,5.91c-.41,1.87-.8,3.65-1.17,5.32-.72,3.33-1.37,6.24-2,8.61s-1.09,4.25-1.41,5.52a12.54,12.54,0,0,0-.35,1.47c.07.19.51.46.84.65l.68.34.76.08a2.2,2.2,0,0,0,1.05-.09c.15-.32.26-.81.46-1.45.39-1.27,1-3.14,1.67-5.51s1.54-5.28,2.42-8.62c.44-1.68.92-3.46,1.41-5.33l1.35-6c1-4.15,1.72-8.71,2.65-13.52.75-4.83,1.47-9.94,2-15.25.32-2.65.5-5.36.69-8.1.08-1.38.17-2.76.26-4.14l.12-4.19c0-1.4.07-2.81.11-4.22s0-2.83,0-4.25c0-2.83-.09-5.68-.22-8.53-.24-5.69-.8-11.37-1.47-16.94s-1.69-11-2.88-16.21-2.56-10.19-4-14.85-3.14-9-4.78-12.91a120.73,120.73,0,0,0-9.53-18.21A57.94,57.94,0,0,0,138.85,106Z"/><path class="cls-4" d="M152.23,134.42s2.91-3.64-1.21-16-3.2-30,3.85-26.69S159,126.54,152.23,134.42Z"/><path class="cls-4" d="M160,161.05A120.16,120.16,0,0,0,164.84,138c1.64-14.39,1.5-21.57,7.42-16.1S167.82,155.14,160,161.05Z"/><path class="cls-4" d="M146.47,119.72s-10.89-28-24.77-25.87S143.57,113.26,146.47,119.72Z"/><path class="cls-4" d="M156.12,140.9s-22.33-33.09-33.67-25.42S154.78,135.61,156.12,140.9Z"/><path class="cls-4" d="M162.18,159s-25.09-27.09-32.31-17.42C121.82,152.32,159.41,151.75,162.18,159Z"/><path class="cls-4" d="M163.9,189.89s10-36.46,15.1-41.16S186,161.69,163.9,189.89Z"/><path class="cls-4" d="M162.39,173.13s-20.82-21.58-26.64-21S134.29,169.15,162.39,173.13Z"/><path class="cls-4" d="M163.15,233.5s-16.7-26.68-22.33-27.47S136.94,223,163.15,233.5Z"/><path class="cls-4" d="M157,259.07s-6.48-28-12.12-28.27S133.57,250.27,157,259.07Z"/><path class="cls-4" d="M155.84,266.7s22-40.91,29.38-43.76S190.37,244.31,155.84,266.7Z"/><path class="cls-4" d="M162.73,224.51s14.08-40.94,21.5-43.84S195.05,201.88,162.73,224.51Z"/><path class="cls-4" d="M162.64,205.86s-10.87-29.61-22.14-23C130.42,188.71,162.64,205.86,162.64,205.86Z"/><path class="cls-5" d="M428.08,299.73a25.79,25.79,0,0,1-2.51-30.38c5.53-8.59,16.62-14.78,16.49-25,0-3.3-1.35-6.45-1.72-9.73-1-8.9,4.94-17.07,11.49-23.17s14.21-11.39,18.53-19.23c7.13-12.91,3.32-28.78,3.41-43.53.05-7.84,3.37-17.74,11.21-18,6.58-.25,11.06,6.92,11.92,13.45s-.38,13.37,1.7,19.62c3.32,10,14,15.55,19.38,24.56a27.1,27.1,0,0,1-3.75,32c-4.82,4.93-11.33,7.75-16.87,11.85S487,242.56,488,249.36c1.21,7.68,9.43,12.72,10.93,20.35,1.1,5.6-1.72,11.25-5.29,15.7-10.15,12.66-47.81,33.59-65.6,14.32"/><path class="cls-4" d="M486.27,149.3l-.09.49a13.61,13.61,0,0,0-.24,1.44,30,30,0,0,0-.23,5.55,72.15,72.15,0,0,0,1,8.58c.55,3.29,1.29,7,1.9,11a68,68,0,0,1,.89,13.14,39.7,39.7,0,0,1-3.16,14.23c-1.91,4.73-5.63,8.58-9.77,11.93s-8.77,6.44-12.41,10.76a20.35,20.35,0,0,0-4,7.42,22.43,22.43,0,0,0-.71,8.37,42.11,42.11,0,0,0,1.68,8,26,26,0,0,1,1,7.41A26.34,26.34,0,0,1,457.94,271a120.32,120.32,0,0,1-7.69,10.6,46.1,46.1,0,0,0-6.11,9.76,19,19,0,0,0-1.56,9.11,19.85,19.85,0,0,0,1.4,5.81c.26.64.47,1.12.63,1.43l.22.49,2.8-1.42-.21-.42c-.14-.28-.34-.69-.57-1.24a16.87,16.87,0,0,1-1.29-4.92,16.06,16.06,0,0,1,1.2-7.76,44.09,44.09,0,0,1,5.59-9.26,120.9,120.9,0,0,0,7.65-11,28.54,28.54,0,0,0,4.27-14.58,27.56,27.56,0,0,0-1.28-8,41,41,0,0,1-1.77-7.61,20.8,20.8,0,0,1,.49-7.74,18.81,18.81,0,0,1,3.6-6.94c3.35-4.16,7.9-7.3,12-10.82a46.06,46.06,0,0,0,5.74-5.69,25.61,25.61,0,0,0,4.05-6.79,40.43,40.43,0,0,0,3-14.52A69.7,69.7,0,0,0,489,176.33c-.68-4.06-1.47-7.73-2.06-11a73,73,0,0,1-1.14-8.54,30.51,30.51,0,0,1,.14-5.54c.06-.64.18-1.12.23-1.45Z"/><path class="cls-2" d="M144.6,310.86c-2.2-15.53-16.25-26.54-30.3-33.51s-29.63-12-40.72-23.05c-4.62-4.62-8.12-12.71-3.35-17.18a11,11,0,0,1,6.27-2.5c14-1.7,16,7.14,29.61,3.22,4.71-1.36,9.37-5.76,8.06-10.48a11.44,11.44,0,0,0-3-4.57c-16.56-17.58-27.84-25-48.3-37.81-11.55-7.22-23.32-17.53-23.78-31.14a7.09,7.09,0,0,1,.86-4.19c1.67-2.53,5.37-2.5,8.32-1.81,14.33,3.36,10.44,4.55,23.29,11.74,3.29,1.84,7.89,3.22,10.46.44,1.63-1.75,1.62-4.47,1.15-6.82-3-15.21-33.77-32.58-13.35-39.1,5.34-1.71,11.11,6.41,15.73,3.23,3.9-2.68.58-8.69-2.75-12.06-4.86-4.93-9.85-11.72-7.32-18.18,2.22-5.67,9.64-7.83,15.47-6.06s10.3,6.38,14.17,11.08a103.74,103.74,0,0,1,15.49,25c4.71,11.1,8.05,24.4,18.77,29.93,6.39,3.31,14.11,2.92,21.08,1.13,3.57-.91,7.48-2.14,10.79-.52,2.42,1.18,3.93,3.67,5,6.17a30.73,30.73,0,0,1-3.25,29c-4,5.7-10,9.93-13.43,16s-2.88,15.5,3.58,18.14c4.65,1.91,9.78-.59,14.62-1.91,8.92-2.44,19.1-.55,26,5.57s10,16.5,6.91,25.19c-5.61,15.57-25.61,19.16-38.89,29a44.07,44.07,0,0,0-17.24,38.73"/><path class="cls-3" d="M150,314.1a1.24,1.24,0,0,1-1.16-1.22C147.26,196.81,86.08,88.1,85.46,87A1.23,1.23,0,0,1,87.6,85.8c.62,1.09,62.11,110.32,63.67,227.05a1.23,1.23,0,0,1-1.21,1.25Z"/><path class="cls-3" d="M126.38,187.64a1.25,1.25,0,0,1-1.1-.84c-10.22-31-51.93-63.49-52.35-63.82a1.23,1.23,0,1,1,1.51-2c1.74,1.35,42.72,33.31,53.18,65a1.23,1.23,0,0,1-1.24,1.62Z"/><path class="cls-3" d="M136.07,215h-.15a1.23,1.23,0,0,1-1.07-1.37c3.68-29.94,32.45-55.36,33.67-56.42a1.23,1.23,0,1,1,1.62,1.85c-.29.26-29.28,25.88-32.85,54.87A1.21,1.21,0,0,1,136.07,215Z"/><path class="cls-3" d="M138.82,226.59a1.22,1.22,0,0,1-1-.66c-12.53-23.83-86-63-86.72-63.41a1.23,1.23,0,0,1,1.15-2.17C55.29,162,127.1,200.28,140,224.79a1.22,1.22,0,0,1-.52,1.66A1.2,1.2,0,0,1,138.82,226.59Z"/><path class="cls-3" d="M147.88,279.82h-.06a1.23,1.23,0,0,1-1.1-1.35c3.4-32.77,52.26-44.25,54.34-44.72a1.23,1.23,0,0,1,.54,2.4c-.49.11-49.21,11.56-52.43,42.57A1.22,1.22,0,0,1,147.88,279.82Z"/><path class="cls-3" d="M149,291.54a1.22,1.22,0,0,1-1.1-.85c-9-27.73-66.73-43.66-67.31-43.82a1.23,1.23,0,1,1,.64-2.37c2.43.65,59.63,16.43,69,45.44a1.23,1.23,0,0,1-.79,1.55A1.38,1.38,0,0,1,149,291.54Z"/><path class="cls-5" d="M164,298.36a23.34,23.34,0,0,0-7-26.68c-7.31-5.68-18.64-7.63-21.59-16.39-1-2.83-.79-5.91-1.46-8.82-1.82-7.9-9.34-13.09-16.77-16.32s-15.56-5.45-21.6-10.84c-10-8.89-11.48-23.57-16-36.14-2.4-6.68-8.21-14.13-15-12-5.69,1.76-7.36,9.23-6.12,15.06s4.34,11.3,4.44,17.26c.16,9.51-7.24,17.47-9.16,26.79a24.52,24.52,0,0,0,12.81,26.15c5.59,2.75,12,3.21,18,5s12,5.81,13.15,11.94c1.27,6.92-4.23,13.69-3.22,20.66.75,5.11,4.85,9.08,9.23,11.81,12.48,7.75,50.92,14.3,60.31-7.5"/><path class="cls-4" d="M69.12,187.45l.22.39A11.06,11.06,0,0,1,70,189a26,26,0,0,1,1.86,4.67,64.16,64.16,0,0,1,1.72,7.62c.52,3,1,6.35,1.69,10a61.88,61.88,0,0,0,3.2,11.49,36.16,36.16,0,0,0,7,11.19c3,3.46,7.39,5.63,11.92,7.25s9.43,2.86,13.84,5.45a18.53,18.53,0,0,1,5.68,5.12,20.42,20.42,0,0,1,3.12,6.93,38.92,38.92,0,0,1,1,7.32,23.25,23.25,0,0,0,1.33,6.65,23.89,23.89,0,0,0,7.6,10.15,110.73,110.73,0,0,0,9.76,6.74,41.68,41.68,0,0,1,8.15,6.49,17.27,17.27,0,0,1,4.07,7.31,18.44,18.44,0,0,1,.55,5.38c0,.62-.07,1.09-.1,1.41s-.05.48-.05.48l-2.81-.36.05-.43c0-.28.08-.69.11-1.23a15.79,15.79,0,0,0-.37-4.59,14.52,14.52,0,0,0-3.37-6.26,39.26,39.26,0,0,0-7.55-6.22,112.56,112.56,0,0,1-9.83-7.07,25.74,25.74,0,0,1-8-11.16,25,25,0,0,1-1.31-7.19,36.65,36.65,0,0,0-.78-7,18.69,18.69,0,0,0-2.74-6.46,16.94,16.94,0,0,0-5.16-4.84c-4.11-2.55-8.93-3.86-13.49-5.63A40.87,40.87,0,0,1,90.38,239a23.07,23.07,0,0,1-5.51-4.57A37,37,0,0,1,78,223a62.19,62.19,0,0,1-3-11.62c-.64-3.66-1.07-7-1.55-10a66.65,66.65,0,0,0-1.6-7.63A26.63,26.63,0,0,0,70,189c-.24-.53-.48-.9-.62-1.17Z"/><path class="cls-5" d="M412.31,120"/><path class="cls-5" d="M412.31,121.47a1.49,1.49,0,0,0,0-3,1.49,1.49,0,0,0,0,3Z"/><path class="cls-5" d="M85.51,281.74"/><path class="cls-5" d="M85.51,283.23a1.49,1.49,0,0,0,0-3,1.49,1.49,0,0,0,0,3Z"/><path class="cls-2" d="M65,106c4.72,0,4.72-7.33,0-7.33S60.28,106,65,106Z"/><path class="cls-5" d="M436.12,253"/><path class="cls-5" d="M436.12,256c3.83,0,3.84-6,0-6s-3.83,6,0,6Z"/><line class="cls-6" x1="88.82" y1="311.18" x2="457.09" y2="311.18"/><circle class="cls-4" cx="172.26" cy="36.1" r="36.1" transform="translate(96.96 195.18) rotate(-76.51)"/><circle class="cls-4" cx="50.3" cy="271.28" r="14.7" transform="translate(-111.53 47.82) rotate(-25.41)"/><path class="cls-2" d="M178.24,55.62H145.67a2,2,0,1,0,0,4h32.57a2,2,0,0,0,0-4Z"/><path class="cls-2" d="M131.17,55.61h-8.9a2,2,0,1,0,0,4h8.9a2,2,0,0,0,0-4Z"/><path class="cls-2" d="M154.16,71.49a2,2,0,0,1-2,2h-10a2,2,0,0,1,0-4h10A2,2,0,0,1,154.16,71.49Zm-19.93,0a2,2,0,0,1-2,2h-10a2,2,0,0,1,0-4h10A2,2,0,0,1,134.23,71.49Z"/><path class="cls-7" d="M112.49,162.78a1,1,0,0,0-.95,1V166a1,1,0,1,0,1.91,0v-2.21A1,1,0,0,0,112.49,162.78Z"/><path class="cls-7" d="M110,160.56h-2.21a1,1,0,1,0,0,1.91H110a1,1,0,1,0,0-1.91Z"/><path class="cls-7" d="M112.49,156a1,1,0,0,0-.95,1v2.22a1,1,0,0,0,1.91,0v-2.22A1,1,0,0,0,112.49,156Z"/><path class="cls-7" d="M117.21,160.4H115a1,1,0,0,0,0,1.92h2.21a1,1,0,1,0,0-1.92Z"/><path class="cls-4" d="M231.93,39.89s1.57,11.22-11.53,11c0,0,11.26.12,10.95,10.65,0,0,1-8.29,11.35-10.14C242.7,51.36,234,53.36,231.93,39.89Z"/><path class="cls-4" d="M242.82,37.41s.76,5.42-5.57,5.3c0,0,5.44.06,5.3,5.15,0,0,.49-4,5.48-4.9C248,43,243.81,43.92,242.82,37.41Z"/><path class="cls-8" d="M465.11,189.63a1,1,0,0,0-.95,1v2.22a1,1,0,0,0,1.91,0v-2.22A1,1,0,0,0,465.11,189.63Z"/><path class="cls-8" d="M462.61,187.41h-2.22a1,1,0,0,0,0,1.91h2.22a1,1,0,1,0,0-1.91Z"/><path class="cls-8" d="M465.11,182.82a1,1,0,0,0-.95,1V186a1,1,0,0,0,1.91,0v-2.22A1,1,0,0,0,465.11,182.82Z"/><path class="cls-8" d="M469.83,187.26h-2.22a1,1,0,0,0,0,1.91h2.22a1,1,0,1,0,0-1.91Z"/><path class="cls-8" d="M184.15,135.77a1,1,0,0,0-1,.95v2.22a1,1,0,1,0,1.91,0v-2.22A1,1,0,0,0,184.15,135.77Z"/><path class="cls-8" d="M181.65,133.54h-2.22a1,1,0,0,0,0,1.92h2.22a1,1,0,0,0,0-1.92Z"/><path class="cls-8" d="M184.15,129a1,1,0,0,0-1,1v2.21a1,1,0,1,0,1.91,0v-2.21A1,1,0,0,0,184.15,129Z"/><path class="cls-8" d="M188.87,133.39h-2.22a1,1,0,0,0,0,1.91h2.22a1,1,0,1,0,0-1.91Z"/><path class="cls-9" d="M351.21,158.64s12.47-21.48,17.52-29.46c2.22-3.5,5.58-2.51,3.51,2.15-1.15,2.57-5.17,8.93-5.17,8.93,5.65.55,7.51,7.38,6,10.17-.75,1.37-5.32,5.29-6.43,6s-5.8,6.75-5.8,6.75Z"/><path class="cls-9" d="M360.44,142.89c1.3-2.18,2.6-4.38,3.83-6.43l1.32.15a5.41,5.41,0,0,0,4.59-1.46c-1.48,2.53-3.11,5.11-3.11,5.11a6.81,6.81,0,0,1,2.38.68,23.48,23.48,0,0,1-7.73,1.93A6.19,6.19,0,0,1,360.44,142.89Z"/><path class="cls-9" d="M358.5,146.18l2.71-4.58c1.88-.47,4.09-1,6.21-1.3,5.37.8,7.13,7.4,5.63,10.13a23.86,23.86,0,0,1-4.05,4.1C364.41,153.24,360.69,149.14,358.5,146.18Z"/><path class="cls-10" d="M371.93,144.39c2.22,1.26,3.76,2.48,2.31,5.43s-4.62,2.7-4.56,1.59,2.66-5.11,2.66-5.11S368.94,144.06,371.93,144.39Z"/><path class="cls-10" d="M370.08,142.53c3.53-.69,3.63,2,2,5.31S368,151.42,367,150s2.87-5.4,2.87-5.4S366.73,142.16,370.08,142.53Z"/><path class="cls-10" d="M370.22,145c-1.63,3.31-3.92,3.39-4.88,1.93s2.87-5.4,2.87-5.4-1.08-1-.86-1.66c.52-1.58,4-1.69,4.19,1.25A9.51,9.51,0,0,1,370.22,145Z"/><path class="cls-9" d="M354.83,154.15c-2.29-6,.1-14.63,2.68-14.43s10.85-.63,11.13,1.62-8.55,3.63-8.55,3.63,6,7.07,2.29,9.08S354.74,156.15,354.83,154.15Z"/><path class="cls-11" d="M284.59,196.38s33.22-2.36,34.72-2.56,2.65-.66,5.92-4.31,27.11-36.34,27.11-36.34c.81-1.3,14.23,7.25,12.18,12.26-1,2.46-26.26,41.17-26.26,41.17s-4.91,8.72-12.93,12.13-26.67,12.63-26.67,12.63Z"/><path class="cls-12" d="M307.83,194.7l5.91-.43c7.4,4,15.62,11.87,8.5,25.82-1.38.62-2.89,1.32-4.47,2,11.07-17-2.84-24.75-9.94-27.44Zm8-.59c7.16,3.46,16.43,11.06,7.45,25.52l2.08-.9a20.83,20.83,0,0,0,2.31-1.17c6-12.39-.31-19.88-7-24.07a5.32,5.32,0,0,1-1.32.33C319,193.85,317.74,194,315.8,194.11Z"/><path class="cls-11" d="M285.24,196.78c28.73,5,29.26,38.23,25,66.79-.92,14.15.71,35.8-.86,41.83a8.28,8.28,0,0,1-1.21,2.2l-33.35,1.07H237.46a8.25,8.25,0,0,1-1.21-2.19c-1.56-6,1.67-37.18.75-51.33l-2.67-47.47,30.07-10.9Z"/><path class="cls-11" d="M295.83,163.28a3.55,3.55,0,0,1,.47.08h0a6.43,6.43,0,1,1-5.36,1.29c-.17,1.89.13,4.24,2.55,4.48l-.07-3.71A2.2,2.2,0,0,1,295.83,163.28Z"/><path class="cls-11" d="M252.07,163.28a3.55,3.55,0,0,0-.47.08h0a6.42,6.42,0,1,0,5.37,1.29c.16,1.89-.14,4.24-2.56,4.48l.07-3.71A2.2,2.2,0,0,0,252.07,163.28Z"/><polygon class="cls-13" points="299.33 147.91 297.24 167.06 292.87 149.01 299.33 147.91"/><path class="cls-14" d="M285.24,196.33a27.55,27.55,0,0,1,2.89-.2c2.85,10-2.76,17.37-13.31,17.37a14.24,14.24,0,0,1-14.2-14.21v-1.14l3.78-1.37Z"/><path class="cls-9" d="M274.82,175.09h0a10.45,10.45,0,0,0-10.42,10.42v13.78a10.45,10.45,0,0,0,10.42,10.42h0a10.45,10.45,0,0,0,10.42-10.42V185.51A10.45,10.45,0,0,0,274.82,175.09Z"/><path class="cls-11" d="M264.44,184.62c0,.29,0,.59,0,.89v13.78a10.32,10.32,0,0,0,.67,3.65l20.17-9v-7.74c-3.71-.69-12.72-1.62-13.24-2.06C271.66,183.84,267.94,184.21,264.44,184.62Z"/><path class="cls-9" d="M297.23,152.83c0,.12,0,.23,0,.35v20a22.05,22.05,0,0,1-22,22h0a22,22,0,0,1-22-22v-20a17.1,17.1,0,0,1,.64-5.25,22.07,22.07,0,0,1,21.35-16.74h0A22.06,22.06,0,0,1,297.23,152.83Z"/><path class="cls-11" d="M297.23,152.83v.22l-13.41-5.45L278.1,151l-7.4-2a2.08,2.08,0,0,1-2.05,1l-7.78-2.81,1-11.27a22,22,0,0,1,3.6-2.27l23.38,2.39A22,22,0,0,1,297.23,152.83Z"/><path class="cls-11" d="M253.26,170.25a14.22,14.22,0,0,0,2.54-13s8.54-4.65,8.54-11.67c0,0,1,2.43,2.7,3s2.54-1.67,1.73-2.7c0,0,6.21,4.54,11.35,5.57s6.64-4.16,4.53-6c0,0,8.27,5.78,13.57,4.38s8.42-22-9.73-26.58-29.61.21-33.5,2.81-6.37,9.61-3.67,14.37a16,16,0,0,0-4.11,7.67c-.86,4.54,2.55,15.9,2.55,15.9S253.26,164.41,253.26,170.25Z"/><path class="cls-9" d="M299.73,131h0c-22.2,7.56-33.5-1.17-38.53-7.71a30,30,0,0,0-4,1.61c12.13,19.9,32,19.47,45.16,16.37A18,18,0,0,0,299.73,131Z"/><path class="cls-9" d="M260.73,233.94a18.73,18.73,0,0,0,2.53,3.06c.94.86,9.42,3.88,9.42,3.88a2.79,2.79,0,0,1-2.49,1.94h-4.88c-1.61,0-2.83,5.21-8.65,7.54-4.42,1.77-2.67-10.45-1.57-16.42Z"/><rect class="cls-15" x="262.79" y="204.65" width="18.04" height="36.51" rx="2.02"/><rect class="cls-16" x="262.79" y="208.63" width="18.04" height="0.7"/><rect class="cls-16" x="262.79" y="236.48" width="18.04" height="0.7"/><path class="cls-9" d="M262.26,215a2.9,2.9,0,0,1,.8,2c.08,1.44-.89,2.9-1.27,3.86l-1.41,4.81s-.67,6.69-.79,6.92a6.51,6.51,0,0,0,1.24,1.69l-5.61.53c.16-1.91.32-3.2.32-3.2l-.61-3.4s1.86-5.18,2.59-6.81S261.89,214.73,262.26,215Z"/><path class="cls-17" d="M271.82,217.09a3,3,0,1,0-3-3A3,3,0,0,0,271.82,217.09Z"/><path class="cls-9" d="M250.63,263.24s3.88-7.1,4.94-8.59a13.54,13.54,0,0,0,2.49-7.82c0-3.66-.61-5.49.94-6.65a13.13,13.13,0,0,1,3.72-1.78l3.85.14c.64,0,3.55.83,4.24.81a1.71,1.71,0,0,0,1.47-1.06c.11-.44.11-.72-.91-1.11a39.28,39.28,0,0,0-4.69-1.47c-.94-.13-4.13-.33-4.85-.33a18.69,18.69,0,0,0-2.66.47l2.52-1.19a20.93,20.93,0,0,1,5.16-.33c1,.16,4.18,1.91,6.32.66,0,0,.47-.37-.1-1s-6.23-3.12-7-3.39a7.45,7.45,0,0,0-3.07-.09,10.57,10.57,0,0,0-3.69.59c-.69.41-1.88,1.05-1.88,1.05s2.07-3.94,2.35-4.21,4.52-2.08,4.8-2.17,3.19-.55,4-1.19a2.9,2.9,0,0,0,1-2c0-.36-.11-.61-1.63-.47s-3.3.3-4.52.44a35.16,35.16,0,0,0-5.46,2c-1.41.56-2.61,2.75-4.16,5.52s-3.71,8.71-4.71,11-.33,9-4.27,14.19a58,58,0,0,1-5,6.15Z"/><path class="cls-11" d="M234.33,207.68s-7.06,2.64-10.47,15.07-7,55.94-7.82,65.56,13.33,17.95,21.05,8.62,18-38.19,18-38.19a18.52,18.52,0,0,0-9.08-6.57l-3.75,4.57S256.74,205.11,234.33,207.68Z"/><path class="cls-12" d="M220.87,240.16q-.24,1.89-.48,3.87c13.29-1.82,21.6,2.38,24,3.82.25-1.22.5-2.53.74-3.9-3.71-1.93-12.08-5.2-24.26-3.79Zm-1,8c11.31-1.52,19.45,1,23.8,3-.34,1.52-.65,2.79-.89,3.74-3.67-1.81-11.65-4.64-23.34-2.83C219.61,250.69,219.76,249.39,219.9,248.11Z"/><path class="cls-17" d="M264.93,207.68a1,1,0,1,0-1-1A1,1,0,0,0,264.93,207.68Z"/><path class="cls-14" d="M267.28,207.29a.61.61,0,1,0-.62-.61A.61.61,0,0,0,267.28,207.29Z"/><path class="cls-14" d="M264.93,207.42a.74.74,0,1,0-.74-.74A.74.74,0,0,0,264.93,207.42Z"/><path class="cls-17" d="M264.93,207a.33.33,0,1,0,0-.66.33.33,0,1,0,0,.66Z"/><path class="cls-12" d="M265.26,206.62a.33.33,0,1,0-.33-.33A.34.34,0,0,0,265.26,206.62Z"/><path class="cls-17" d="M267.28,207a.31.31,0,1,0-.31-.31A.31.31,0,0,0,267.28,207Z"/><path class="cls-18" d="M235.66,298.88a.52.52,0,0,1-.36-.16.47.47,0,0,1,0-.67,12.4,12.4,0,0,0,1.38-1.42c7.21-8.71,16.87-35.05,17.88-37.82a18.46,18.46,0,0,0-8.38-6.09L242.67,257a.46.46,0,0,1-.58.11.47.47,0,0,1-.24-.54c.05-.16,4.53-16.36,4.56-30a.47.47,0,0,1,.47-.47h0a.48.48,0,0,1,.48.47c0,10.83-2.85,23.27-4.06,28.12l2.4-2.91a.47.47,0,0,1,.51-.15,18.8,18.8,0,0,1,9.32,6.76.48.48,0,0,1,.05.42c-.42,1.18-10.44,29.06-18.12,38.34a13.42,13.42,0,0,1-1.49,1.52A.47.47,0,0,1,235.66,298.88Z"/><path class="cls-18" d="M227.37,275.34a.48.48,0,0,1-.37-.78l16.65-20.21a.48.48,0,0,1,.67-.06.49.49,0,0,1,.07.67l-16.66,20.2A.44.44,0,0,1,227.37,275.34Z"/><path class="cls-18" d="M227.47,271.34a.5.5,0,0,1-.44-.28.49.49,0,0,1,.25-.63c1.6-.7,4.59-1.78,4.72-1.83a.48.48,0,0,1,.61.29.47.47,0,0,1-.29.6s-3.09,1.12-4.66,1.81A.43.43,0,0,1,227.47,271.34Z"/><path class="cls-18" d="M245,245.11a.41.41,0,0,1-.16,0,.48.48,0,0,1-.29-.61c0-.09,3.31-9.05,3.61-10a.48.48,0,0,1,.59-.32.47.47,0,0,1,.31.59c-.3,1-3.48,9.72-3.62,10.09A.47.47,0,0,1,245,245.11Z"/><path class="cls-18" d="M312.37,239.09a.47.47,0,0,1-.47-.46c-.38-13-3.17-23.17-8.27-30.21a.47.47,0,0,1,.76-.56c5.22,7.2,8.07,17.55,8.46,30.75a.46.46,0,0,1-.46.48Z"/><path class="cls-18" d="M319.31,194.29a.48.48,0,0,1-.47-.43.47.47,0,0,1,.43-.51c.07,0,6.43-.52,9.76-.56a.47.47,0,1,1,0,.94c-3.3.05-9.63.55-9.69.56Z"/></g></g></svg>